G04 EAGLE Gerber RS-274X export*
G75*
%MOMM*%
%FSLAX34Y34*%
%LPD*%
%INPCBWay Copper Layer 2*%
%IPPOS*%
%AMOC8*
5,1,8,0,0,1.08239X$1,22.5*%
G01*
%ADD10C,1.158000*%
%ADD11C,1.458000*%
%ADD12C,0.711200*%
%ADD13C,0.254000*%

G36*
X256200Y3811D02*
X256200Y3811D01*
X256202Y3811D01*
X266221Y3834D01*
X266293Y3843D01*
X266365Y3842D01*
X266524Y3871D01*
X267662Y4153D01*
X267751Y4188D01*
X267844Y4213D01*
X267940Y4261D01*
X267958Y4268D01*
X267967Y4274D01*
X267988Y4284D01*
X270416Y5678D01*
X270539Y5772D01*
X270663Y5863D01*
X270667Y5868D01*
X270669Y5870D01*
X270674Y5876D01*
X270771Y5982D01*
X272529Y8161D01*
X272610Y8292D01*
X272692Y8423D01*
X272694Y8429D01*
X272696Y8431D01*
X272698Y8439D01*
X272750Y8573D01*
X273598Y11240D01*
X273615Y11335D01*
X273642Y11427D01*
X273652Y11534D01*
X273656Y11553D01*
X273655Y11564D01*
X273657Y11587D01*
X273689Y12651D01*
X273688Y12663D01*
X273689Y12689D01*
X273689Y13190D01*
X273687Y13210D01*
X273687Y13270D01*
X273591Y14785D01*
X273600Y14800D01*
X273625Y14897D01*
X273659Y14992D01*
X273664Y15051D01*
X273679Y15108D01*
X273689Y15269D01*
X273689Y290337D01*
X273687Y290359D01*
X273685Y290437D01*
X273379Y294335D01*
X273365Y294403D01*
X273360Y294472D01*
X273320Y294628D01*
X270911Y302043D01*
X270861Y302150D01*
X270817Y302261D01*
X270784Y302312D01*
X270776Y302331D01*
X270763Y302346D01*
X270731Y302397D01*
X266148Y308704D01*
X266067Y308791D01*
X265991Y308883D01*
X265944Y308921D01*
X265930Y308936D01*
X265913Y308947D01*
X265867Y308985D01*
X259559Y313568D01*
X259455Y313625D01*
X259355Y313689D01*
X259299Y313711D01*
X259281Y313721D01*
X259261Y313726D01*
X259206Y313748D01*
X251791Y316158D01*
X251723Y316171D01*
X251657Y316193D01*
X251498Y316216D01*
X247600Y316523D01*
X247578Y316522D01*
X247500Y316527D01*
X210930Y316527D01*
X210930Y316526D01*
X210929Y316527D01*
X73089Y316405D01*
X73076Y316404D01*
X71013Y316404D01*
X71012Y316404D01*
X68930Y316402D01*
X68923Y316403D01*
X68912Y316402D01*
X68910Y316402D01*
X68883Y316403D01*
X44832Y316402D01*
X44810Y316399D01*
X44729Y316398D01*
X40833Y316081D01*
X40766Y316067D01*
X40697Y316062D01*
X40542Y316022D01*
X33132Y313600D01*
X33026Y313550D01*
X32916Y313506D01*
X32863Y313473D01*
X32845Y313464D01*
X32829Y313451D01*
X32780Y313420D01*
X26476Y308834D01*
X26390Y308754D01*
X26299Y308679D01*
X26260Y308631D01*
X26245Y308617D01*
X26234Y308600D01*
X26197Y308555D01*
X21611Y302251D01*
X21555Y302148D01*
X21491Y302048D01*
X21468Y301990D01*
X21458Y301972D01*
X21453Y301953D01*
X21431Y301898D01*
X19010Y294489D01*
X18997Y294422D01*
X18975Y294357D01*
X18951Y294198D01*
X18635Y290301D01*
X18636Y290280D01*
X18630Y290198D01*
X18630Y215039D01*
X18648Y214902D01*
X18661Y214763D01*
X18668Y214744D01*
X18670Y214724D01*
X18721Y214595D01*
X18769Y214464D01*
X18780Y214447D01*
X18787Y214428D01*
X18869Y214316D01*
X18947Y214201D01*
X18962Y214187D01*
X18974Y214171D01*
X19081Y214082D01*
X19186Y213990D01*
X19204Y213981D01*
X19219Y213968D01*
X19345Y213909D01*
X19469Y213846D01*
X19489Y213841D01*
X19507Y213833D01*
X19643Y213806D01*
X19779Y213776D01*
X19799Y213777D01*
X19819Y213773D01*
X19958Y213781D01*
X20097Y213786D01*
X20117Y213791D01*
X20137Y213792D01*
X20269Y213835D01*
X20402Y213874D01*
X20420Y213884D01*
X20439Y213891D01*
X20557Y213965D01*
X20676Y214036D01*
X20697Y214054D01*
X20708Y214061D01*
X20722Y214076D01*
X20797Y214142D01*
X22954Y216299D01*
X30530Y216299D01*
X35887Y210942D01*
X35887Y203366D01*
X34278Y201758D01*
X34235Y201702D01*
X34185Y201654D01*
X34138Y201577D01*
X34083Y201506D01*
X34055Y201442D01*
X34019Y201383D01*
X33993Y201297D01*
X33957Y201214D01*
X33946Y201145D01*
X33925Y201079D01*
X33921Y200989D01*
X33907Y200900D01*
X33914Y200831D01*
X33910Y200761D01*
X33928Y200673D01*
X33937Y200584D01*
X33960Y200518D01*
X33975Y200450D01*
X34014Y200369D01*
X34044Y200284D01*
X34084Y200227D01*
X34114Y200164D01*
X34172Y200096D01*
X34223Y200021D01*
X34275Y199975D01*
X34321Y199922D01*
X34394Y199870D01*
X34461Y199811D01*
X34524Y199779D01*
X34581Y199739D01*
X34665Y199707D01*
X34745Y199666D01*
X34813Y199651D01*
X34878Y199626D01*
X34967Y199616D01*
X35055Y199597D01*
X35125Y199599D01*
X35194Y199591D01*
X35283Y199603D01*
X35373Y199606D01*
X35440Y199626D01*
X35509Y199635D01*
X35661Y199687D01*
X36271Y199940D01*
X37105Y199940D01*
X37203Y199952D01*
X37302Y199955D01*
X37360Y199972D01*
X37421Y199980D01*
X37513Y200016D01*
X37608Y200044D01*
X37660Y200075D01*
X37716Y200097D01*
X37796Y200155D01*
X37882Y200205D01*
X37957Y200272D01*
X37974Y200284D01*
X37981Y200293D01*
X38003Y200312D01*
X86113Y248422D01*
X142239Y248422D01*
X142269Y248426D01*
X142298Y248424D01*
X142426Y248446D01*
X142555Y248462D01*
X142582Y248473D01*
X142612Y248478D01*
X142730Y248531D01*
X142851Y248579D01*
X142875Y248596D01*
X142902Y248609D01*
X143003Y248690D01*
X143108Y248766D01*
X143127Y248789D01*
X143150Y248807D01*
X143228Y248911D01*
X143311Y249011D01*
X143323Y249038D01*
X143341Y249061D01*
X143412Y249206D01*
X143954Y250514D01*
X145383Y251943D01*
X147250Y252716D01*
X149272Y252716D01*
X151139Y251943D01*
X151287Y251795D01*
X151397Y251710D01*
X151504Y251621D01*
X151522Y251612D01*
X151538Y251600D01*
X151666Y251545D01*
X151792Y251486D01*
X151812Y251482D01*
X151830Y251474D01*
X151967Y251452D01*
X152104Y251426D01*
X152124Y251427D01*
X152144Y251424D01*
X152283Y251437D01*
X152422Y251446D01*
X152441Y251452D01*
X152461Y251454D01*
X152592Y251501D01*
X152724Y251544D01*
X152741Y251554D01*
X152760Y251561D01*
X152876Y251639D01*
X152993Y251714D01*
X153007Y251728D01*
X153023Y251740D01*
X153116Y251844D01*
X153211Y251945D01*
X153220Y251963D01*
X153234Y251978D01*
X153297Y252102D01*
X153364Y252224D01*
X153369Y252243D01*
X153378Y252261D01*
X153409Y252397D01*
X153444Y252532D01*
X153445Y252560D01*
X153448Y252572D01*
X153448Y252592D01*
X153454Y252692D01*
X153454Y280196D01*
X153454Y281334D01*
X154410Y282290D01*
X155869Y283749D01*
X155930Y283827D01*
X155998Y283899D01*
X156027Y283952D01*
X156064Y284000D01*
X156104Y284091D01*
X156151Y284178D01*
X156166Y284236D01*
X156191Y284292D01*
X156206Y284390D01*
X156231Y284486D01*
X156237Y284586D01*
X156240Y284606D01*
X156239Y284619D01*
X156241Y284647D01*
X156241Y286260D01*
X156691Y287347D01*
X156705Y287395D01*
X156726Y287440D01*
X156746Y287548D01*
X156775Y287654D01*
X156776Y287704D01*
X156785Y287752D01*
X156779Y287862D01*
X156780Y287972D01*
X156769Y288020D01*
X156766Y288070D01*
X156732Y288174D01*
X156706Y288281D01*
X156683Y288325D01*
X156668Y288372D01*
X156609Y288465D01*
X156558Y288562D01*
X156524Y288599D01*
X156498Y288641D01*
X156417Y288716D01*
X156344Y288798D01*
X156302Y288825D01*
X156266Y288859D01*
X156170Y288912D01*
X156078Y288972D01*
X156031Y288989D01*
X155987Y289013D01*
X155881Y289040D01*
X155777Y289076D01*
X155728Y289080D01*
X155679Y289092D01*
X155519Y289102D01*
X105722Y289102D01*
X105603Y289087D01*
X105485Y289080D01*
X105446Y289067D01*
X105406Y289062D01*
X105295Y289019D01*
X105182Y288982D01*
X105148Y288960D01*
X105110Y288945D01*
X105014Y288875D01*
X104914Y288812D01*
X104886Y288782D01*
X104853Y288759D01*
X104777Y288667D01*
X104696Y288580D01*
X104676Y288545D01*
X104650Y288514D01*
X104600Y288406D01*
X104542Y288302D01*
X104532Y288262D01*
X104515Y288226D01*
X104492Y288109D01*
X104463Y287994D01*
X104459Y287933D01*
X104455Y287913D01*
X104456Y287893D01*
X104452Y287833D01*
X104452Y286760D01*
X103679Y284893D01*
X102250Y283463D01*
X100382Y282690D01*
X98361Y282690D01*
X96494Y283463D01*
X95064Y284893D01*
X94291Y286760D01*
X94291Y288781D01*
X95064Y290649D01*
X96494Y292078D01*
X98361Y292851D01*
X99974Y292851D01*
X100073Y292864D01*
X100172Y292867D01*
X100230Y292884D01*
X100290Y292891D01*
X100382Y292928D01*
X100477Y292955D01*
X100529Y292986D01*
X100586Y293008D01*
X100666Y293066D01*
X100751Y293117D01*
X100826Y293183D01*
X100843Y293195D01*
X100851Y293204D01*
X100872Y293223D01*
X102340Y294692D01*
X165558Y294692D01*
X176662Y283587D01*
X176662Y253305D01*
X176669Y253255D01*
X176666Y253206D01*
X176688Y253098D01*
X176702Y252989D01*
X176720Y252943D01*
X176730Y252894D01*
X176779Y252796D01*
X176819Y252694D01*
X176848Y252653D01*
X176870Y252609D01*
X176941Y252525D01*
X177006Y252436D01*
X177044Y252404D01*
X177077Y252367D01*
X177166Y252303D01*
X177251Y252233D01*
X177296Y252212D01*
X177337Y252184D01*
X177439Y252145D01*
X177539Y252098D01*
X177587Y252089D01*
X177634Y252071D01*
X177743Y252059D01*
X177851Y252038D01*
X177901Y252041D01*
X177950Y252036D01*
X178059Y252051D01*
X178168Y252058D01*
X178216Y252073D01*
X178265Y252080D01*
X178417Y252132D01*
X179490Y252576D01*
X181511Y252576D01*
X183378Y251803D01*
X184808Y250374D01*
X185581Y248506D01*
X185581Y247037D01*
X185594Y246938D01*
X185597Y246839D01*
X185613Y246781D01*
X185621Y246721D01*
X185657Y246629D01*
X185685Y246534D01*
X185716Y246482D01*
X185738Y246425D01*
X185796Y246345D01*
X185847Y246260D01*
X185913Y246184D01*
X185925Y246168D01*
X185934Y246160D01*
X185953Y246139D01*
X236108Y195984D01*
X236186Y195923D01*
X236258Y195855D01*
X236311Y195826D01*
X236359Y195789D01*
X236450Y195750D01*
X236537Y195702D01*
X236595Y195687D01*
X236651Y195663D01*
X236749Y195647D01*
X236845Y195622D01*
X236945Y195616D01*
X236965Y195613D01*
X236977Y195614D01*
X237005Y195612D01*
X250548Y195612D01*
X250647Y195625D01*
X250746Y195628D01*
X250804Y195644D01*
X250864Y195652D01*
X250956Y195689D01*
X251051Y195716D01*
X251103Y195747D01*
X251160Y195769D01*
X251240Y195827D01*
X251325Y195878D01*
X251400Y195944D01*
X251417Y195956D01*
X251425Y195965D01*
X251446Y195984D01*
X252587Y197125D01*
X254454Y197898D01*
X256475Y197898D01*
X258343Y197125D01*
X259772Y195695D01*
X260545Y193828D01*
X260545Y191807D01*
X259772Y189940D01*
X258343Y188510D01*
X256565Y187774D01*
X256522Y187749D01*
X256475Y187732D01*
X256384Y187671D01*
X256289Y187616D01*
X256253Y187582D01*
X256212Y187554D01*
X256139Y187472D01*
X256060Y187395D01*
X256034Y187353D01*
X256001Y187315D01*
X255951Y187218D01*
X255894Y187124D01*
X255879Y187077D01*
X255857Y187032D01*
X255833Y186925D01*
X255800Y186820D01*
X255798Y186770D01*
X255787Y186722D01*
X255791Y186612D01*
X255785Y186502D01*
X255795Y186454D01*
X255797Y186404D01*
X255827Y186299D01*
X255850Y186191D01*
X255871Y186146D01*
X255885Y186099D01*
X255941Y186004D01*
X255989Y185905D01*
X256022Y185867D01*
X256047Y185825D01*
X256090Y185776D01*
X256090Y185775D01*
X256092Y185773D01*
X256153Y185704D01*
X261892Y179965D01*
X261970Y179905D01*
X262042Y179837D01*
X262095Y179807D01*
X262143Y179770D01*
X262234Y179731D01*
X262321Y179683D01*
X262379Y179668D01*
X262435Y179644D01*
X262533Y179628D01*
X262629Y179604D01*
X262729Y179597D01*
X262749Y179594D01*
X262761Y179595D01*
X262789Y179593D01*
X263506Y179593D01*
X265374Y178820D01*
X266803Y177391D01*
X267576Y175523D01*
X267576Y173502D01*
X266803Y171635D01*
X265374Y170205D01*
X263506Y169432D01*
X261485Y169432D01*
X259618Y170205D01*
X258188Y171635D01*
X257415Y173502D01*
X257415Y175540D01*
X257437Y175638D01*
X257471Y175763D01*
X257472Y175793D01*
X257478Y175822D01*
X257474Y175952D01*
X257476Y176081D01*
X257470Y176110D01*
X257469Y176140D01*
X257433Y176264D01*
X257402Y176391D01*
X257388Y176417D01*
X257380Y176445D01*
X257314Y176557D01*
X257254Y176672D01*
X257234Y176694D01*
X257219Y176719D01*
X257112Y176840D01*
X248387Y185565D01*
X248309Y185626D01*
X248237Y185694D01*
X248184Y185723D01*
X248136Y185760D01*
X248045Y185799D01*
X247958Y185847D01*
X247900Y185862D01*
X247844Y185886D01*
X247746Y185902D01*
X247651Y185926D01*
X247550Y185933D01*
X247530Y185936D01*
X247518Y185935D01*
X247490Y185937D01*
X219060Y185937D01*
X218942Y185922D01*
X218823Y185914D01*
X218785Y185902D01*
X218745Y185897D01*
X218634Y185853D01*
X218521Y185816D01*
X218487Y185795D01*
X218449Y185780D01*
X218353Y185710D01*
X218252Y185646D01*
X218224Y185617D01*
X218192Y185593D01*
X218116Y185501D01*
X218034Y185415D01*
X218015Y185379D01*
X217989Y185348D01*
X217938Y185240D01*
X217881Y185136D01*
X217871Y185097D01*
X217853Y185060D01*
X217831Y184944D01*
X217801Y184828D01*
X217797Y184768D01*
X217794Y184748D01*
X217795Y184728D01*
X217791Y184667D01*
X217791Y168124D01*
X217797Y168075D01*
X217795Y168025D01*
X217817Y167918D01*
X217831Y167809D01*
X217849Y167762D01*
X217859Y167714D01*
X217907Y167615D01*
X217948Y167513D01*
X217977Y167473D01*
X217999Y167428D01*
X218070Y167345D01*
X218135Y167256D01*
X218173Y167224D01*
X218205Y167186D01*
X218295Y167123D01*
X218380Y167053D01*
X218425Y167032D01*
X218465Y167003D01*
X218568Y166964D01*
X218667Y166917D01*
X218716Y166908D01*
X218763Y166890D01*
X218872Y166878D01*
X218980Y166857D01*
X219029Y166860D01*
X219079Y166855D01*
X219188Y166870D01*
X219297Y166877D01*
X219344Y166892D01*
X219394Y166899D01*
X219546Y166951D01*
X221425Y167730D01*
X223038Y167730D01*
X223136Y167742D01*
X223235Y167745D01*
X223293Y167762D01*
X223353Y167769D01*
X223445Y167806D01*
X223541Y167833D01*
X223593Y167864D01*
X223649Y167886D01*
X223729Y167945D01*
X223814Y167995D01*
X223890Y168061D01*
X223906Y168073D01*
X223914Y168083D01*
X223935Y168101D01*
X229575Y173741D01*
X229593Y173764D01*
X229616Y173784D01*
X229690Y173890D01*
X229770Y173992D01*
X229782Y174020D01*
X229799Y174044D01*
X229845Y174165D01*
X229896Y174284D01*
X229901Y174314D01*
X229911Y174341D01*
X229926Y174470D01*
X229946Y174598D01*
X229943Y174628D01*
X229946Y174658D01*
X229933Y174751D01*
X229933Y176944D01*
X230707Y178812D01*
X232136Y180241D01*
X234003Y181015D01*
X236025Y181015D01*
X237892Y180241D01*
X239321Y178812D01*
X240095Y176944D01*
X240095Y174923D01*
X239321Y173056D01*
X237892Y171627D01*
X236025Y170853D01*
X235117Y170853D01*
X235019Y170841D01*
X234920Y170838D01*
X234862Y170821D01*
X234802Y170813D01*
X234710Y170777D01*
X234615Y170749D01*
X234563Y170718D01*
X234506Y170696D01*
X234426Y170638D01*
X234341Y170588D01*
X234265Y170521D01*
X234249Y170509D01*
X234241Y170500D01*
X234220Y170481D01*
X227888Y164149D01*
X227827Y164071D01*
X227759Y163999D01*
X227730Y163946D01*
X227693Y163898D01*
X227653Y163807D01*
X227606Y163720D01*
X227590Y163662D01*
X227566Y163606D01*
X227551Y163508D01*
X227526Y163412D01*
X227520Y163312D01*
X227517Y163292D01*
X227518Y163280D01*
X227516Y163252D01*
X227516Y161638D01*
X226742Y159771D01*
X225313Y158342D01*
X223446Y157568D01*
X221396Y157568D01*
X221278Y157553D01*
X221159Y157546D01*
X221121Y157533D01*
X221080Y157528D01*
X220970Y157484D01*
X220856Y157448D01*
X220822Y157426D01*
X220785Y157411D01*
X220688Y157341D01*
X220588Y157278D01*
X220560Y157248D01*
X220527Y157224D01*
X220451Y157133D01*
X220370Y157046D01*
X220350Y157011D01*
X220325Y156979D01*
X220274Y156872D01*
X220216Y156768D01*
X220206Y156728D01*
X220189Y156692D01*
X220167Y156575D01*
X220137Y156460D01*
X220133Y156399D01*
X220129Y156379D01*
X220130Y156359D01*
X220127Y156299D01*
X220127Y155304D01*
X220139Y155206D01*
X220142Y155107D01*
X220159Y155049D01*
X220166Y154989D01*
X220203Y154897D01*
X220230Y154802D01*
X220261Y154750D01*
X220284Y154693D01*
X220342Y154613D01*
X220392Y154528D01*
X220458Y154452D01*
X220470Y154436D01*
X220480Y154428D01*
X220498Y154407D01*
X225780Y149126D01*
X225780Y149125D01*
X227789Y147117D01*
X227789Y122668D01*
X222474Y117353D01*
X222413Y117275D01*
X222345Y117203D01*
X222316Y117150D01*
X222279Y117102D01*
X222240Y117011D01*
X222192Y116924D01*
X222177Y116866D01*
X222153Y116810D01*
X222137Y116712D01*
X222112Y116616D01*
X222106Y116516D01*
X222103Y116496D01*
X222104Y116484D01*
X222102Y116456D01*
X222102Y114842D01*
X221329Y112975D01*
X219899Y111546D01*
X218032Y110772D01*
X216011Y110772D01*
X215181Y111116D01*
X215133Y111129D01*
X215088Y111150D01*
X214981Y111171D01*
X214875Y111200D01*
X214825Y111201D01*
X214776Y111210D01*
X214667Y111203D01*
X214557Y111205D01*
X214508Y111193D01*
X214459Y111190D01*
X214354Y111156D01*
X214247Y111131D01*
X214203Y111107D01*
X214156Y111092D01*
X214063Y111033D01*
X213966Y110982D01*
X213929Y110949D01*
X213887Y110922D01*
X213812Y110842D01*
X213731Y110768D01*
X213704Y110726D01*
X213670Y110690D01*
X213617Y110594D01*
X213556Y110502D01*
X213540Y110455D01*
X213516Y110412D01*
X213489Y110306D01*
X213453Y110201D01*
X213449Y110152D01*
X213437Y110104D01*
X213426Y109943D01*
X213426Y95401D01*
X213444Y95263D01*
X213457Y95124D01*
X213464Y95105D01*
X213466Y95085D01*
X213517Y94956D01*
X213564Y94825D01*
X213576Y94808D01*
X213583Y94790D01*
X213665Y94677D01*
X213743Y94562D01*
X213758Y94549D01*
X213770Y94532D01*
X213877Y94443D01*
X213981Y94352D01*
X213999Y94342D01*
X214015Y94329D01*
X214140Y94270D01*
X214265Y94207D01*
X214285Y94202D01*
X214303Y94194D01*
X214439Y94168D01*
X214575Y94137D01*
X214595Y94138D01*
X214615Y94134D01*
X214754Y94143D01*
X214893Y94147D01*
X214912Y94153D01*
X214932Y94154D01*
X215064Y94197D01*
X215198Y94235D01*
X215216Y94246D01*
X215235Y94252D01*
X215352Y94326D01*
X215472Y94397D01*
X215493Y94415D01*
X215504Y94422D01*
X215518Y94437D01*
X215593Y94503D01*
X215740Y94650D01*
X217607Y95424D01*
X219094Y95424D01*
X219192Y95436D01*
X219291Y95439D01*
X219349Y95456D01*
X219409Y95464D01*
X219501Y95500D01*
X219597Y95528D01*
X219649Y95558D01*
X219705Y95581D01*
X219785Y95639D01*
X219870Y95689D01*
X219946Y95755D01*
X219962Y95767D01*
X219970Y95777D01*
X219991Y95795D01*
X239781Y115585D01*
X239842Y115663D01*
X239910Y115736D01*
X239939Y115789D01*
X239976Y115836D01*
X240015Y115927D01*
X240063Y116014D01*
X240078Y116073D01*
X240102Y116128D01*
X240118Y116226D01*
X240143Y116322D01*
X240149Y116422D01*
X240152Y116442D01*
X240151Y116455D01*
X240153Y116483D01*
X240153Y117011D01*
X240926Y118878D01*
X242356Y120307D01*
X244223Y121081D01*
X246244Y121081D01*
X248111Y120307D01*
X249541Y118878D01*
X250314Y117011D01*
X250314Y114989D01*
X249541Y113122D01*
X248509Y112091D01*
X248437Y111997D01*
X248358Y111908D01*
X248339Y111871D01*
X248314Y111840D01*
X248267Y111730D01*
X248213Y111624D01*
X248204Y111585D01*
X248188Y111548D01*
X248169Y111430D01*
X248143Y111314D01*
X248145Y111274D01*
X248138Y111234D01*
X248149Y111115D01*
X248153Y110996D01*
X248164Y110957D01*
X248168Y110917D01*
X248208Y110805D01*
X248241Y110691D01*
X248262Y110656D01*
X248276Y110618D01*
X248343Y110519D01*
X248403Y110417D01*
X248443Y110372D01*
X248454Y110355D01*
X248470Y110341D01*
X248509Y110296D01*
X249607Y109198D01*
X250381Y107331D01*
X250381Y105309D01*
X249607Y103442D01*
X248459Y102294D01*
X248398Y102215D01*
X248330Y102143D01*
X248301Y102090D01*
X248264Y102042D01*
X248225Y101951D01*
X248177Y101865D01*
X248162Y101806D01*
X248138Y101750D01*
X248122Y101653D01*
X248097Y101557D01*
X248091Y101457D01*
X248088Y101436D01*
X248089Y101424D01*
X248087Y101396D01*
X248087Y97644D01*
X248104Y97506D01*
X248118Y97367D01*
X248124Y97348D01*
X248127Y97328D01*
X248178Y97199D01*
X248225Y97068D01*
X248237Y97051D01*
X248244Y97032D01*
X248326Y96920D01*
X248404Y96805D01*
X248419Y96792D01*
X248431Y96775D01*
X248538Y96686D01*
X248642Y96594D01*
X248660Y96585D01*
X248676Y96572D01*
X248801Y96513D01*
X248925Y96450D01*
X248945Y96445D01*
X248964Y96437D01*
X249100Y96411D01*
X249236Y96380D01*
X249256Y96381D01*
X249276Y96377D01*
X249414Y96386D01*
X249554Y96390D01*
X249573Y96395D01*
X249593Y96397D01*
X249725Y96440D01*
X249859Y96478D01*
X249877Y96489D01*
X249896Y96495D01*
X250013Y96569D01*
X250133Y96640D01*
X250154Y96658D01*
X250164Y96665D01*
X250178Y96680D01*
X250254Y96746D01*
X255813Y102305D01*
X255831Y102328D01*
X255853Y102348D01*
X255928Y102454D01*
X256008Y102556D01*
X256019Y102584D01*
X256036Y102608D01*
X256082Y102729D01*
X256134Y102848D01*
X256139Y102877D01*
X256149Y102905D01*
X256164Y103034D01*
X256184Y103162D01*
X256181Y103192D01*
X256184Y103221D01*
X256166Y103350D01*
X256154Y103479D01*
X256144Y103507D01*
X256140Y103536D01*
X256088Y103688D01*
X255499Y105109D01*
X255499Y107131D01*
X256273Y108998D01*
X257702Y110427D01*
X259569Y111201D01*
X261591Y111201D01*
X263458Y110427D01*
X264887Y108998D01*
X265661Y107131D01*
X265661Y105109D01*
X264887Y103242D01*
X263458Y101813D01*
X263294Y101745D01*
X263286Y101740D01*
X263277Y101737D01*
X263148Y101661D01*
X263017Y101587D01*
X263011Y101581D01*
X263003Y101576D01*
X262882Y101470D01*
X255041Y93628D01*
X254980Y93550D01*
X254912Y93478D01*
X254883Y93425D01*
X254846Y93377D01*
X254806Y93286D01*
X254759Y93200D01*
X254744Y93141D01*
X254719Y93085D01*
X254704Y92987D01*
X254679Y92892D01*
X254673Y92792D01*
X254670Y92771D01*
X254671Y92759D01*
X254669Y92731D01*
X254669Y23242D01*
X254681Y23144D01*
X254684Y23045D01*
X254701Y22987D01*
X254709Y22926D01*
X254745Y22834D01*
X254773Y22739D01*
X254804Y22687D01*
X254826Y22631D01*
X254884Y22551D01*
X254934Y22465D01*
X255001Y22390D01*
X255013Y22373D01*
X255022Y22366D01*
X255041Y22345D01*
X255887Y21498D01*
X256661Y19631D01*
X256661Y17609D01*
X255887Y15742D01*
X254458Y14313D01*
X252591Y13539D01*
X250569Y13539D01*
X248702Y14313D01*
X247273Y15742D01*
X246499Y17609D01*
X246499Y19631D01*
X247273Y21498D01*
X248708Y22933D01*
X248768Y23011D01*
X248836Y23083D01*
X248866Y23136D01*
X248903Y23184D01*
X248942Y23275D01*
X248990Y23362D01*
X249005Y23420D01*
X249029Y23476D01*
X249045Y23574D01*
X249069Y23670D01*
X249076Y23770D01*
X249079Y23790D01*
X249078Y23803D01*
X249080Y23831D01*
X249080Y40961D01*
X249062Y41099D01*
X249049Y41238D01*
X249042Y41257D01*
X249040Y41277D01*
X248989Y41406D01*
X248941Y41537D01*
X248930Y41554D01*
X248923Y41572D01*
X248841Y41685D01*
X248763Y41800D01*
X248748Y41813D01*
X248736Y41830D01*
X248629Y41919D01*
X248524Y42010D01*
X248506Y42020D01*
X248491Y42033D01*
X248365Y42092D01*
X248241Y42155D01*
X248221Y42159D01*
X248203Y42168D01*
X248067Y42194D01*
X247931Y42225D01*
X247911Y42224D01*
X247891Y42228D01*
X247752Y42219D01*
X247613Y42215D01*
X247593Y42209D01*
X247573Y42208D01*
X247441Y42165D01*
X247308Y42127D01*
X247290Y42116D01*
X247271Y42110D01*
X247153Y42036D01*
X247034Y41965D01*
X247013Y41946D01*
X247002Y41940D01*
X246988Y41925D01*
X246913Y41859D01*
X246078Y41024D01*
X231738Y26684D01*
X231677Y26606D01*
X231610Y26534D01*
X231580Y26481D01*
X231543Y26433D01*
X231504Y26342D01*
X231456Y26255D01*
X231441Y26197D01*
X231417Y26141D01*
X231401Y26043D01*
X231377Y25947D01*
X231370Y25847D01*
X231367Y25827D01*
X231368Y25814D01*
X231366Y25786D01*
X231366Y24173D01*
X230893Y23030D01*
X230880Y22982D01*
X230858Y22937D01*
X230838Y22829D01*
X230809Y22723D01*
X230808Y22673D01*
X230799Y22624D01*
X230805Y22515D01*
X230804Y22405D01*
X230815Y22357D01*
X230818Y22307D01*
X230852Y22203D01*
X230878Y22096D01*
X230901Y22052D01*
X230916Y22005D01*
X230975Y21912D01*
X231027Y21815D01*
X231060Y21778D01*
X231087Y21736D01*
X231167Y21661D01*
X231240Y21579D01*
X231282Y21552D01*
X231318Y21518D01*
X231414Y21465D01*
X231506Y21405D01*
X231553Y21388D01*
X231597Y21364D01*
X231703Y21337D01*
X231807Y21301D01*
X231857Y21297D01*
X231905Y21285D01*
X232065Y21275D01*
X233764Y21275D01*
X233862Y21287D01*
X233961Y21290D01*
X234019Y21307D01*
X234079Y21315D01*
X234171Y21351D01*
X234266Y21379D01*
X234319Y21409D01*
X234375Y21432D01*
X234455Y21490D01*
X234540Y21540D01*
X234616Y21606D01*
X234632Y21618D01*
X234640Y21628D01*
X234661Y21646D01*
X235802Y22787D01*
X237669Y23561D01*
X239691Y23561D01*
X241558Y22787D01*
X242987Y21358D01*
X243761Y19491D01*
X243761Y17469D01*
X242987Y15602D01*
X241558Y14173D01*
X239691Y13399D01*
X237669Y13399D01*
X235802Y14173D01*
X234661Y15314D01*
X234583Y15374D01*
X234511Y15442D01*
X234458Y15471D01*
X234410Y15508D01*
X234319Y15548D01*
X234232Y15596D01*
X234174Y15611D01*
X234118Y15635D01*
X234020Y15650D01*
X233924Y15675D01*
X233824Y15681D01*
X233804Y15685D01*
X233792Y15683D01*
X233764Y15685D01*
X222640Y15685D01*
X216877Y21448D01*
X216877Y78401D01*
X216864Y78499D01*
X216861Y78598D01*
X216844Y78657D01*
X216837Y78717D01*
X216800Y78809D01*
X216773Y78904D01*
X216742Y78956D01*
X216720Y79012D01*
X216662Y79092D01*
X216611Y79178D01*
X216545Y79253D01*
X216533Y79270D01*
X216523Y79278D01*
X216505Y79299D01*
X211292Y84511D01*
X211185Y84595D01*
X211081Y84681D01*
X211060Y84692D01*
X211041Y84706D01*
X210916Y84760D01*
X210794Y84819D01*
X210771Y84823D01*
X210749Y84833D01*
X210615Y84854D01*
X210482Y84880D01*
X210459Y84879D01*
X210435Y84883D01*
X210300Y84870D01*
X210165Y84862D01*
X210142Y84855D01*
X210118Y84853D01*
X209990Y84807D01*
X209862Y84766D01*
X209842Y84753D01*
X209819Y84745D01*
X209707Y84669D01*
X209592Y84597D01*
X209576Y84580D01*
X209556Y84567D01*
X209466Y84465D01*
X209373Y84367D01*
X209361Y84346D01*
X209345Y84328D01*
X209284Y84207D01*
X209218Y84089D01*
X209212Y84066D01*
X209201Y84045D01*
X209171Y83913D01*
X209137Y83782D01*
X209134Y83748D01*
X209131Y83735D01*
X209132Y83713D01*
X209125Y83621D01*
X209010Y63075D01*
X209014Y63042D01*
X209011Y63009D01*
X209033Y62885D01*
X209048Y62759D01*
X209060Y62729D01*
X209066Y62696D01*
X209118Y62581D01*
X209164Y62463D01*
X209183Y62436D01*
X209196Y62406D01*
X209275Y62307D01*
X209349Y62205D01*
X209374Y62183D01*
X209395Y62158D01*
X209496Y62082D01*
X209593Y62000D01*
X209623Y61986D01*
X209649Y61966D01*
X209794Y61895D01*
X210326Y61675D01*
X211756Y60245D01*
X212529Y58378D01*
X212529Y56357D01*
X211756Y54489D01*
X210326Y53060D01*
X208459Y52287D01*
X206438Y52287D01*
X204570Y53060D01*
X203555Y54075D01*
X203461Y54148D01*
X203372Y54227D01*
X203336Y54245D01*
X203304Y54270D01*
X203195Y54318D01*
X203089Y54372D01*
X203049Y54380D01*
X203012Y54396D01*
X202894Y54415D01*
X202779Y54441D01*
X202738Y54440D01*
X202698Y54446D01*
X202580Y54435D01*
X202461Y54432D01*
X202422Y54420D01*
X202382Y54417D01*
X202270Y54376D01*
X202155Y54343D01*
X202120Y54323D01*
X202082Y54309D01*
X201984Y54242D01*
X201881Y54182D01*
X201836Y54142D01*
X201819Y54130D01*
X201806Y54115D01*
X201760Y54075D01*
X200878Y53193D01*
X199011Y52419D01*
X196989Y52419D01*
X195122Y53193D01*
X193693Y54622D01*
X192919Y56489D01*
X192919Y58511D01*
X193693Y60378D01*
X195122Y61807D01*
X196989Y62581D01*
X198066Y62581D01*
X198185Y62596D01*
X198303Y62603D01*
X198342Y62616D01*
X198382Y62621D01*
X198493Y62664D01*
X198606Y62701D01*
X198640Y62723D01*
X198678Y62738D01*
X198774Y62807D01*
X198875Y62871D01*
X198902Y62901D01*
X198935Y62924D01*
X199011Y63016D01*
X199093Y63103D01*
X199112Y63138D01*
X199138Y63169D01*
X199189Y63277D01*
X199246Y63381D01*
X199256Y63421D01*
X199273Y63457D01*
X199296Y63574D01*
X199326Y63689D01*
X199329Y63749D01*
X199333Y63769D01*
X199332Y63790D01*
X199336Y63850D01*
X199336Y179385D01*
X199323Y179483D01*
X199320Y179582D01*
X199303Y179640D01*
X199296Y179700D01*
X199259Y179792D01*
X199232Y179887D01*
X199201Y179940D01*
X199179Y179996D01*
X199121Y180076D01*
X199070Y180161D01*
X199004Y180237D01*
X198992Y180253D01*
X198983Y180261D01*
X198964Y180282D01*
X181718Y197528D01*
X181640Y197589D01*
X181568Y197656D01*
X181515Y197686D01*
X181467Y197723D01*
X181376Y197762D01*
X181289Y197810D01*
X181231Y197825D01*
X181175Y197849D01*
X181077Y197865D01*
X180981Y197889D01*
X180881Y197896D01*
X180861Y197899D01*
X180849Y197898D01*
X180821Y197900D01*
X179294Y197900D01*
X178417Y198263D01*
X178369Y198276D01*
X178324Y198297D01*
X178217Y198318D01*
X178111Y198347D01*
X178061Y198348D01*
X178012Y198357D01*
X177903Y198350D01*
X177793Y198352D01*
X177744Y198340D01*
X177695Y198337D01*
X177590Y198303D01*
X177483Y198278D01*
X177439Y198254D01*
X177392Y198239D01*
X177299Y198180D01*
X177202Y198129D01*
X177165Y198096D01*
X177123Y198069D01*
X177048Y197989D01*
X176967Y197915D01*
X176940Y197874D01*
X176905Y197837D01*
X176852Y197741D01*
X176792Y197649D01*
X176776Y197602D01*
X176752Y197559D01*
X176725Y197453D01*
X176689Y197349D01*
X176685Y197299D01*
X176672Y197251D01*
X176662Y197090D01*
X176662Y171814D01*
X149446Y144598D01*
X149385Y144520D01*
X149317Y144447D01*
X149288Y144394D01*
X149251Y144347D01*
X149212Y144256D01*
X149164Y144169D01*
X149149Y144110D01*
X149125Y144055D01*
X149109Y143957D01*
X149084Y143861D01*
X149078Y143761D01*
X149075Y143741D01*
X149076Y143728D01*
X149074Y143700D01*
X149074Y126616D01*
X149089Y126497D01*
X149097Y126379D01*
X149109Y126340D01*
X149114Y126300D01*
X149158Y126189D01*
X149195Y126076D01*
X149216Y126042D01*
X149231Y126004D01*
X149301Y125908D01*
X149365Y125808D01*
X149394Y125780D01*
X149418Y125747D01*
X149510Y125671D01*
X149596Y125590D01*
X149632Y125570D01*
X149663Y125544D01*
X149771Y125494D01*
X149875Y125436D01*
X149914Y125426D01*
X149951Y125409D01*
X150067Y125386D01*
X150183Y125357D01*
X150243Y125353D01*
X150263Y125349D01*
X150283Y125350D01*
X150344Y125346D01*
X158229Y125346D01*
X158239Y125348D01*
X158248Y125347D01*
X158397Y125368D01*
X158545Y125386D01*
X158554Y125390D01*
X158563Y125391D01*
X158592Y125401D01*
X160635Y125401D01*
X162502Y124628D01*
X163932Y123198D01*
X164705Y121331D01*
X164705Y119310D01*
X163932Y117442D01*
X162502Y116013D01*
X160635Y115240D01*
X158614Y115240D01*
X156746Y116013D01*
X155317Y117442D01*
X154683Y118973D01*
X154668Y118999D01*
X154659Y119027D01*
X154590Y119137D01*
X154525Y119250D01*
X154505Y119271D01*
X154489Y119296D01*
X154394Y119385D01*
X154304Y119478D01*
X154279Y119493D01*
X154258Y119514D01*
X154144Y119576D01*
X154033Y119644D01*
X154005Y119653D01*
X153979Y119667D01*
X153853Y119700D01*
X153729Y119738D01*
X153700Y119739D01*
X153671Y119747D01*
X153510Y119757D01*
X148910Y119757D01*
X148812Y119745D01*
X148713Y119742D01*
X148655Y119725D01*
X148595Y119717D01*
X148503Y119681D01*
X148408Y119653D01*
X148356Y119622D01*
X148299Y119600D01*
X148219Y119542D01*
X148134Y119492D01*
X148058Y119425D01*
X148042Y119413D01*
X148034Y119404D01*
X148013Y119385D01*
X144617Y115990D01*
X140728Y115990D01*
X140629Y115977D01*
X140530Y115974D01*
X140472Y115957D01*
X140412Y115950D01*
X140320Y115913D01*
X140225Y115886D01*
X140173Y115855D01*
X140116Y115833D01*
X140036Y115775D01*
X139951Y115724D01*
X139876Y115658D01*
X139859Y115646D01*
X139851Y115637D01*
X139830Y115618D01*
X137916Y113704D01*
X137738Y113704D01*
X137639Y113691D01*
X137540Y113688D01*
X137482Y113671D01*
X137422Y113664D01*
X137411Y113659D01*
X130174Y113659D01*
X120078Y123755D01*
X120078Y153079D01*
X120072Y153128D01*
X120074Y153178D01*
X120052Y153285D01*
X120038Y153394D01*
X120020Y153440D01*
X120010Y153489D01*
X119962Y153588D01*
X119921Y153690D01*
X119892Y153730D01*
X119870Y153775D01*
X119799Y153858D01*
X119734Y153947D01*
X119696Y153979D01*
X119664Y154017D01*
X119574Y154080D01*
X119490Y154150D01*
X119445Y154171D01*
X119404Y154200D01*
X119301Y154239D01*
X119202Y154286D01*
X119153Y154295D01*
X119107Y154313D01*
X118997Y154325D01*
X118889Y154345D01*
X118840Y154342D01*
X118790Y154348D01*
X118682Y154332D01*
X118572Y154326D01*
X118525Y154310D01*
X118476Y154303D01*
X118323Y154251D01*
X117534Y153924D01*
X115512Y153924D01*
X113645Y154698D01*
X112809Y155533D01*
X112716Y155606D01*
X112626Y155685D01*
X112590Y155703D01*
X112558Y155728D01*
X112449Y155775D01*
X112343Y155830D01*
X112303Y155838D01*
X112266Y155854D01*
X112149Y155873D01*
X112033Y155899D01*
X111992Y155898D01*
X111952Y155904D01*
X111834Y155893D01*
X111715Y155890D01*
X111676Y155878D01*
X111636Y155874D01*
X111523Y155834D01*
X111409Y155801D01*
X111374Y155781D01*
X111336Y155767D01*
X111238Y155700D01*
X111135Y155640D01*
X111090Y155600D01*
X111073Y155588D01*
X111060Y155573D01*
X111014Y155533D01*
X97203Y141722D01*
X97172Y141682D01*
X97136Y141649D01*
X97075Y141557D01*
X97008Y141470D01*
X96988Y141425D01*
X96961Y141383D01*
X96925Y141279D01*
X96882Y141178D01*
X96874Y141129D01*
X96858Y141082D01*
X96849Y140973D01*
X96832Y140864D01*
X96836Y140815D01*
X96832Y140765D01*
X96851Y140657D01*
X96862Y140548D01*
X96878Y140501D01*
X96887Y140452D01*
X96932Y140352D01*
X96969Y140248D01*
X96997Y140207D01*
X97017Y140162D01*
X97086Y140076D01*
X97148Y139985D01*
X97185Y139952D01*
X97216Y139914D01*
X97304Y139847D01*
X97386Y139775D01*
X97430Y139752D01*
X97470Y139722D01*
X97615Y139651D01*
X98422Y139317D01*
X99927Y137812D01*
X100021Y137739D01*
X100110Y137661D01*
X100146Y137642D01*
X100178Y137617D01*
X100287Y137570D01*
X100393Y137516D01*
X100433Y137507D01*
X100470Y137491D01*
X100588Y137472D01*
X100703Y137446D01*
X100744Y137448D01*
X100784Y137441D01*
X100902Y137452D01*
X101021Y137456D01*
X101060Y137467D01*
X101100Y137471D01*
X101212Y137511D01*
X101327Y137544D01*
X101362Y137565D01*
X101400Y137579D01*
X101498Y137646D01*
X101601Y137706D01*
X101646Y137746D01*
X101663Y137757D01*
X101676Y137773D01*
X101722Y137812D01*
X102763Y138854D01*
X104631Y139628D01*
X106652Y139628D01*
X108519Y138854D01*
X109949Y137425D01*
X110722Y135558D01*
X110722Y133536D01*
X109949Y131669D01*
X108519Y130240D01*
X106507Y129406D01*
X106386Y129337D01*
X106263Y129272D01*
X106248Y129259D01*
X106231Y129249D01*
X106130Y129151D01*
X106028Y129058D01*
X106017Y129041D01*
X106002Y129027D01*
X105929Y128909D01*
X105853Y128793D01*
X105847Y128773D01*
X105836Y128756D01*
X105795Y128624D01*
X105750Y128492D01*
X105748Y128471D01*
X105742Y128452D01*
X105736Y128314D01*
X105725Y128175D01*
X105728Y128155D01*
X105727Y128135D01*
X105755Y127998D01*
X105779Y127861D01*
X105787Y127843D01*
X105792Y127823D01*
X105853Y127698D01*
X105910Y127571D01*
X105922Y127556D01*
X105931Y127537D01*
X106022Y127431D01*
X106108Y127323D01*
X106124Y127311D01*
X106138Y127295D01*
X106252Y127215D01*
X106362Y127132D01*
X106388Y127119D01*
X106398Y127112D01*
X106417Y127105D01*
X106507Y127061D01*
X106705Y126979D01*
X108134Y125550D01*
X108907Y123682D01*
X108907Y121661D01*
X108134Y119794D01*
X106705Y118364D01*
X104837Y117591D01*
X103109Y117591D01*
X103011Y117579D01*
X102912Y117576D01*
X102853Y117559D01*
X102793Y117551D01*
X102701Y117515D01*
X102606Y117487D01*
X102554Y117456D01*
X102498Y117434D01*
X102418Y117376D01*
X102332Y117326D01*
X102257Y117259D01*
X102240Y117247D01*
X102233Y117238D01*
X102211Y117219D01*
X92604Y107612D01*
X92544Y107534D01*
X92476Y107462D01*
X92447Y107409D01*
X92410Y107361D01*
X92370Y107270D01*
X92322Y107184D01*
X92307Y107125D01*
X92283Y107069D01*
X92268Y106971D01*
X92243Y106876D01*
X92237Y106776D01*
X92233Y106755D01*
X92235Y106743D01*
X92233Y106715D01*
X92233Y99484D01*
X92239Y99435D01*
X92237Y99385D01*
X92259Y99278D01*
X92273Y99169D01*
X92291Y99123D01*
X92301Y99074D01*
X92349Y98975D01*
X92390Y98873D01*
X92419Y98833D01*
X92441Y98788D01*
X92512Y98705D01*
X92576Y98616D01*
X92615Y98584D01*
X92647Y98546D01*
X92737Y98483D01*
X92821Y98413D01*
X92866Y98392D01*
X92907Y98363D01*
X93010Y98324D01*
X93109Y98277D01*
X93158Y98268D01*
X93204Y98250D01*
X93314Y98238D01*
X93421Y98218D01*
X93471Y98221D01*
X93520Y98215D01*
X93629Y98231D01*
X93739Y98237D01*
X93786Y98253D01*
X93835Y98260D01*
X93988Y98312D01*
X94910Y98694D01*
X96931Y98694D01*
X98798Y97920D01*
X100228Y96491D01*
X101001Y94624D01*
X101001Y92602D01*
X100228Y90735D01*
X98798Y89306D01*
X96931Y88532D01*
X94910Y88532D01*
X93042Y89306D01*
X91867Y90482D01*
X91772Y90555D01*
X91683Y90633D01*
X91647Y90652D01*
X91615Y90676D01*
X91506Y90724D01*
X91400Y90778D01*
X91361Y90787D01*
X91324Y90803D01*
X91206Y90821D01*
X91090Y90848D01*
X91049Y90846D01*
X91009Y90853D01*
X90891Y90841D01*
X90772Y90838D01*
X90733Y90827D01*
X90693Y90823D01*
X90581Y90783D01*
X90466Y90749D01*
X90432Y90729D01*
X90394Y90715D01*
X90295Y90648D01*
X90192Y90588D01*
X90147Y90548D01*
X90130Y90537D01*
X90117Y90521D01*
X90072Y90482D01*
X76979Y77389D01*
X76918Y77311D01*
X76851Y77239D01*
X76821Y77186D01*
X76784Y77138D01*
X76745Y77047D01*
X76697Y76960D01*
X76682Y76902D01*
X76658Y76846D01*
X76642Y76748D01*
X76618Y76652D01*
X76611Y76552D01*
X76608Y76532D01*
X76609Y76520D01*
X76607Y76492D01*
X76607Y74878D01*
X75834Y73011D01*
X74405Y71582D01*
X72537Y70808D01*
X70516Y70808D01*
X68649Y71582D01*
X68010Y72220D01*
X67916Y72293D01*
X67827Y72372D01*
X67791Y72390D01*
X67759Y72415D01*
X67649Y72463D01*
X67543Y72517D01*
X67504Y72525D01*
X67467Y72542D01*
X67349Y72560D01*
X67233Y72586D01*
X67193Y72585D01*
X67153Y72591D01*
X67034Y72580D01*
X66915Y72577D01*
X66876Y72565D01*
X66836Y72562D01*
X66724Y72521D01*
X66610Y72488D01*
X66575Y72468D01*
X66537Y72454D01*
X66438Y72387D01*
X66336Y72327D01*
X66291Y72287D01*
X66274Y72275D01*
X66260Y72260D01*
X66215Y72220D01*
X65648Y71654D01*
X63781Y70880D01*
X61760Y70880D01*
X61462Y71004D01*
X61395Y71022D01*
X61330Y71050D01*
X61242Y71064D01*
X61155Y71088D01*
X61085Y71089D01*
X61016Y71100D01*
X60927Y71091D01*
X60837Y71093D01*
X60769Y71076D01*
X60700Y71070D01*
X60615Y71039D01*
X60528Y71019D01*
X60466Y70986D01*
X60400Y70962D01*
X60326Y70912D01*
X60247Y70870D01*
X60195Y70823D01*
X60137Y70784D01*
X60078Y70716D01*
X60011Y70656D01*
X59973Y70598D01*
X59927Y70545D01*
X59886Y70465D01*
X59837Y70390D01*
X59814Y70324D01*
X59782Y70262D01*
X59763Y70174D01*
X59733Y70089D01*
X59728Y70020D01*
X59713Y69952D01*
X59715Y69862D01*
X59708Y69772D01*
X59720Y69704D01*
X59722Y69634D01*
X59747Y69548D01*
X59762Y69459D01*
X59791Y69395D01*
X59811Y69328D01*
X59856Y69251D01*
X59893Y69169D01*
X59937Y69115D01*
X59972Y69054D01*
X60016Y69005D01*
X60017Y69004D01*
X60018Y69002D01*
X60079Y68934D01*
X75340Y53672D01*
X75418Y53612D01*
X75490Y53544D01*
X75543Y53515D01*
X75591Y53478D01*
X75682Y53438D01*
X75768Y53390D01*
X75827Y53375D01*
X75883Y53351D01*
X75981Y53336D01*
X76076Y53311D01*
X76176Y53305D01*
X76197Y53301D01*
X76209Y53303D01*
X76237Y53301D01*
X79958Y53301D01*
X80056Y53313D01*
X80155Y53316D01*
X80213Y53333D01*
X80273Y53341D01*
X80365Y53377D01*
X80460Y53405D01*
X80513Y53435D01*
X80569Y53458D01*
X80649Y53516D01*
X80734Y53566D01*
X80810Y53632D01*
X80826Y53644D01*
X80832Y53652D01*
X80837Y53655D01*
X80841Y53660D01*
X80855Y53672D01*
X81528Y54345D01*
X83395Y55119D01*
X85417Y55119D01*
X87284Y54345D01*
X88713Y52916D01*
X89487Y51049D01*
X89487Y49027D01*
X88713Y47160D01*
X87284Y45731D01*
X85417Y44957D01*
X83395Y44957D01*
X81528Y45731D01*
X79920Y47339D01*
X79871Y47377D01*
X79823Y47427D01*
X79794Y47445D01*
X79769Y47468D01*
X79713Y47499D01*
X79669Y47533D01*
X79613Y47558D01*
X79553Y47595D01*
X79521Y47605D01*
X79491Y47622D01*
X79428Y47638D01*
X79377Y47660D01*
X79318Y47669D01*
X79250Y47691D01*
X79216Y47693D01*
X79183Y47701D01*
X79073Y47708D01*
X79063Y47710D01*
X79057Y47709D01*
X79022Y47711D01*
X73396Y47711D01*
X47220Y73888D01*
X47142Y73948D01*
X47069Y74016D01*
X47016Y74045D01*
X46969Y74083D01*
X46878Y74122D01*
X46791Y74170D01*
X46732Y74185D01*
X46677Y74209D01*
X46579Y74224D01*
X46483Y74249D01*
X46383Y74255D01*
X46363Y74259D01*
X46350Y74258D01*
X46322Y74259D01*
X46116Y74259D01*
X45978Y74242D01*
X45839Y74229D01*
X45820Y74222D01*
X45800Y74219D01*
X45671Y74168D01*
X45540Y74121D01*
X45523Y74110D01*
X45505Y74102D01*
X45392Y74021D01*
X45277Y73943D01*
X45264Y73927D01*
X45247Y73916D01*
X45159Y73809D01*
X45067Y73704D01*
X45057Y73686D01*
X45044Y73671D01*
X44985Y73545D01*
X44922Y73421D01*
X44918Y73401D01*
X44909Y73383D01*
X44883Y73247D01*
X44852Y73111D01*
X44853Y73090D01*
X44849Y73071D01*
X44858Y72932D01*
X44862Y72793D01*
X44868Y72773D01*
X44869Y72753D01*
X44912Y72621D01*
X44950Y72487D01*
X44961Y72470D01*
X44967Y72451D01*
X45041Y72333D01*
X45112Y72213D01*
X45130Y72192D01*
X45137Y72182D01*
X45152Y72168D01*
X45218Y72093D01*
X62309Y55002D01*
X62309Y54954D01*
X62321Y54856D01*
X62324Y54757D01*
X62341Y54699D01*
X62349Y54639D01*
X62385Y54547D01*
X62413Y54452D01*
X62443Y54399D01*
X62466Y54343D01*
X62524Y54263D01*
X62574Y54178D01*
X62640Y54102D01*
X62652Y54086D01*
X62662Y54078D01*
X62680Y54057D01*
X63821Y52916D01*
X64595Y51049D01*
X64595Y49027D01*
X63821Y47160D01*
X62392Y45731D01*
X60525Y44957D01*
X58503Y44957D01*
X56636Y45731D01*
X55207Y47160D01*
X54433Y49027D01*
X54433Y51049D01*
X55258Y53040D01*
X55266Y53068D01*
X55279Y53095D01*
X55308Y53222D01*
X55342Y53347D01*
X55343Y53376D01*
X55349Y53405D01*
X55345Y53535D01*
X55347Y53665D01*
X55340Y53693D01*
X55339Y53723D01*
X55303Y53847D01*
X55273Y53974D01*
X55259Y54000D01*
X55251Y54028D01*
X55185Y54140D01*
X55124Y54255D01*
X55104Y54277D01*
X55089Y54302D01*
X54983Y54423D01*
X38905Y70502D01*
X38826Y70562D01*
X38754Y70630D01*
X38701Y70659D01*
X38653Y70696D01*
X38562Y70736D01*
X38476Y70784D01*
X38417Y70799D01*
X38362Y70823D01*
X38264Y70838D01*
X38168Y70863D01*
X38068Y70869D01*
X38047Y70873D01*
X38035Y70871D01*
X38007Y70873D01*
X36405Y70873D01*
X34538Y71647D01*
X33109Y73076D01*
X32335Y74943D01*
X32335Y76965D01*
X33109Y78832D01*
X34538Y80261D01*
X36405Y81035D01*
X38427Y81035D01*
X39333Y80659D01*
X39448Y80628D01*
X39561Y80589D01*
X39601Y80586D01*
X39640Y80575D01*
X39759Y80573D01*
X39878Y80564D01*
X39917Y80571D01*
X39958Y80570D01*
X40074Y80598D01*
X40191Y80618D01*
X40228Y80635D01*
X40267Y80644D01*
X40372Y80700D01*
X40481Y80749D01*
X40513Y80774D01*
X40548Y80793D01*
X40637Y80873D01*
X40729Y80947D01*
X40754Y80980D01*
X40784Y81007D01*
X40849Y81106D01*
X40921Y81202D01*
X40947Y81256D01*
X40958Y81273D01*
X40965Y81292D01*
X40992Y81346D01*
X41353Y82218D01*
X42782Y83647D01*
X44649Y84421D01*
X46671Y84421D01*
X48538Y83647D01*
X49967Y82218D01*
X50741Y80351D01*
X50741Y78797D01*
X50753Y78699D01*
X50756Y78600D01*
X50773Y78542D01*
X50781Y78481D01*
X50817Y78389D01*
X50845Y78294D01*
X50875Y78242D01*
X50898Y78186D01*
X50956Y78106D01*
X51006Y78020D01*
X51073Y77945D01*
X51085Y77928D01*
X51094Y77921D01*
X51113Y77900D01*
X55743Y73269D01*
X55798Y73226D01*
X55847Y73176D01*
X55923Y73129D01*
X55994Y73074D01*
X56059Y73046D01*
X56118Y73010D01*
X56204Y72983D01*
X56286Y72948D01*
X56355Y72937D01*
X56422Y72916D01*
X56512Y72912D01*
X56600Y72898D01*
X56670Y72904D01*
X56740Y72901D01*
X56827Y72919D01*
X56917Y72928D01*
X56983Y72951D01*
X57051Y72965D01*
X57132Y73005D01*
X57216Y73035D01*
X57274Y73074D01*
X57337Y73105D01*
X57405Y73163D01*
X57479Y73214D01*
X57526Y73266D01*
X57579Y73311D01*
X57630Y73385D01*
X57690Y73452D01*
X57722Y73514D01*
X57762Y73572D01*
X57794Y73656D01*
X57834Y73735D01*
X57850Y73804D01*
X57874Y73869D01*
X57884Y73958D01*
X57904Y74046D01*
X57902Y74116D01*
X57910Y74185D01*
X57897Y74274D01*
X57894Y74364D01*
X57875Y74431D01*
X57865Y74500D01*
X57813Y74652D01*
X57690Y74950D01*
X57690Y76972D01*
X58463Y78839D01*
X59892Y80268D01*
X61760Y81042D01*
X63221Y81042D01*
X63319Y81054D01*
X63418Y81057D01*
X63476Y81074D01*
X63537Y81081D01*
X63629Y81118D01*
X63724Y81145D01*
X63776Y81176D01*
X63832Y81199D01*
X63912Y81257D01*
X63998Y81307D01*
X64073Y81373D01*
X64090Y81385D01*
X64097Y81395D01*
X64119Y81413D01*
X80031Y97326D01*
X80074Y97381D01*
X80124Y97430D01*
X80171Y97506D01*
X80226Y97577D01*
X80254Y97642D01*
X80290Y97701D01*
X80317Y97787D01*
X80353Y97869D01*
X80364Y97938D01*
X80384Y98005D01*
X80388Y98094D01*
X80402Y98183D01*
X80396Y98253D01*
X80399Y98323D01*
X80381Y98410D01*
X80373Y98500D01*
X80349Y98566D01*
X80335Y98634D01*
X80295Y98715D01*
X80265Y98799D01*
X80226Y98857D01*
X80195Y98920D01*
X80137Y98988D01*
X80086Y99062D01*
X80034Y99109D01*
X79989Y99162D01*
X79915Y99213D01*
X79848Y99273D01*
X79786Y99305D01*
X79729Y99345D01*
X79645Y99377D01*
X79565Y99417D01*
X79497Y99433D01*
X79431Y99458D01*
X79342Y99467D01*
X79254Y99487D01*
X79185Y99485D01*
X79115Y99493D01*
X79026Y99480D01*
X78937Y99477D01*
X78870Y99458D01*
X78800Y99448D01*
X78648Y99396D01*
X77241Y98813D01*
X75219Y98813D01*
X73352Y99587D01*
X71923Y101016D01*
X71149Y102883D01*
X71149Y104905D01*
X71923Y106772D01*
X72909Y107759D01*
X72940Y107798D01*
X72977Y107831D01*
X73037Y107923D01*
X73104Y108010D01*
X73124Y108055D01*
X73151Y108097D01*
X73187Y108201D01*
X73231Y108302D01*
X73238Y108351D01*
X73254Y108398D01*
X73263Y108507D01*
X73280Y108616D01*
X73276Y108665D01*
X73280Y108715D01*
X73261Y108823D01*
X73251Y108932D01*
X73234Y108979D01*
X73225Y109028D01*
X73180Y109128D01*
X73143Y109232D01*
X73115Y109273D01*
X73095Y109318D01*
X73026Y109404D01*
X72964Y109495D01*
X72927Y109528D01*
X72896Y109566D01*
X72808Y109633D01*
X72726Y109705D01*
X72682Y109728D01*
X72642Y109758D01*
X72497Y109829D01*
X72082Y110001D01*
X70653Y111430D01*
X69879Y113297D01*
X69879Y115319D01*
X70653Y117186D01*
X71794Y118327D01*
X71854Y118405D01*
X71922Y118477D01*
X71951Y118530D01*
X71988Y118578D01*
X72028Y118669D01*
X72076Y118756D01*
X72091Y118814D01*
X72115Y118870D01*
X72130Y118968D01*
X72155Y119064D01*
X72161Y119164D01*
X72165Y119184D01*
X72163Y119196D01*
X72165Y119224D01*
X72165Y123198D01*
X72150Y123316D01*
X72143Y123435D01*
X72130Y123473D01*
X72125Y123514D01*
X72082Y123624D01*
X72045Y123737D01*
X72023Y123772D01*
X72008Y123809D01*
X71939Y123905D01*
X71875Y124006D01*
X71845Y124034D01*
X71822Y124067D01*
X71730Y124143D01*
X71643Y124224D01*
X71608Y124244D01*
X71577Y124269D01*
X71469Y124320D01*
X71365Y124378D01*
X71325Y124388D01*
X71289Y124405D01*
X71172Y124427D01*
X71057Y124457D01*
X70997Y124461D01*
X70977Y124465D01*
X70956Y124463D01*
X70902Y124467D01*
X69034Y125241D01*
X67605Y126670D01*
X66831Y128537D01*
X66831Y130559D01*
X67605Y132426D01*
X69034Y133855D01*
X70901Y134629D01*
X72524Y134629D01*
X72622Y134641D01*
X72721Y134644D01*
X72779Y134661D01*
X72839Y134669D01*
X72932Y134705D01*
X73027Y134733D01*
X73079Y134763D01*
X73135Y134786D01*
X73215Y134844D01*
X73301Y134894D01*
X73376Y134960D01*
X73393Y134972D01*
X73400Y134982D01*
X73421Y135000D01*
X106571Y168150D01*
X120311Y168150D01*
X125668Y162793D01*
X125668Y126596D01*
X125680Y126498D01*
X125683Y126399D01*
X125700Y126340D01*
X125708Y126280D01*
X125744Y126188D01*
X125771Y126093D01*
X125802Y126041D01*
X125825Y125985D01*
X125883Y125904D01*
X125933Y125819D01*
X125999Y125744D01*
X126011Y125727D01*
X126021Y125719D01*
X126039Y125698D01*
X127362Y124376D01*
X127401Y124345D01*
X127434Y124309D01*
X127526Y124248D01*
X127613Y124181D01*
X127659Y124161D01*
X127700Y124134D01*
X127804Y124098D01*
X127905Y124055D01*
X127954Y124047D01*
X128001Y124031D01*
X128110Y124022D01*
X128219Y124005D01*
X128269Y124009D01*
X128318Y124005D01*
X128426Y124024D01*
X128536Y124035D01*
X128582Y124051D01*
X128631Y124060D01*
X128732Y124105D01*
X128835Y124142D01*
X128876Y124170D01*
X128921Y124190D01*
X129007Y124259D01*
X129098Y124321D01*
X129131Y124358D01*
X129170Y124389D01*
X129236Y124477D01*
X129309Y124559D01*
X129331Y124603D01*
X129361Y124643D01*
X129432Y124788D01*
X129821Y125726D01*
X131250Y127156D01*
X133117Y127929D01*
X133476Y127929D01*
X133594Y127944D01*
X133713Y127951D01*
X133751Y127964D01*
X133792Y127969D01*
X133902Y128013D01*
X134015Y128049D01*
X134050Y128071D01*
X134087Y128086D01*
X134183Y128156D01*
X134284Y128220D01*
X134312Y128249D01*
X134345Y128273D01*
X134421Y128365D01*
X134502Y128451D01*
X134522Y128487D01*
X134547Y128518D01*
X134598Y128625D01*
X134656Y128730D01*
X134666Y128769D01*
X134683Y128806D01*
X134705Y128922D01*
X134735Y129038D01*
X134739Y129098D01*
X134743Y129118D01*
X134741Y129138D01*
X134745Y129198D01*
X134745Y130935D01*
X135519Y132802D01*
X136660Y133943D01*
X136720Y134021D01*
X136788Y134093D01*
X136817Y134146D01*
X136854Y134194D01*
X136894Y134285D01*
X136942Y134372D01*
X136957Y134430D01*
X136981Y134486D01*
X136996Y134584D01*
X137021Y134680D01*
X137027Y134780D01*
X137031Y134800D01*
X137029Y134812D01*
X137031Y134840D01*
X137031Y145868D01*
X166469Y175306D01*
X166530Y175384D01*
X166598Y175456D01*
X166627Y175509D01*
X166664Y175557D01*
X166703Y175648D01*
X166751Y175735D01*
X166766Y175793D01*
X166790Y175849D01*
X166806Y175947D01*
X166831Y176043D01*
X166837Y176143D01*
X166840Y176163D01*
X166839Y176176D01*
X166841Y176204D01*
X166841Y272971D01*
X166837Y273000D01*
X166840Y273030D01*
X166817Y273158D01*
X166801Y273287D01*
X166790Y273314D01*
X166785Y273343D01*
X166732Y273462D01*
X166684Y273582D01*
X166667Y273606D01*
X166655Y273633D01*
X166573Y273735D01*
X166497Y273840D01*
X166474Y273859D01*
X166456Y273882D01*
X166352Y273960D01*
X166252Y274043D01*
X166225Y274055D01*
X166202Y274073D01*
X166057Y274144D01*
X164564Y274763D01*
X163134Y276192D01*
X162361Y278059D01*
X162361Y278899D01*
X162346Y279017D01*
X162339Y279136D01*
X162326Y279175D01*
X162321Y279215D01*
X162277Y279325D01*
X162241Y279439D01*
X162219Y279473D01*
X162204Y279510D01*
X162134Y279607D01*
X162070Y279707D01*
X162041Y279735D01*
X162017Y279768D01*
X161925Y279844D01*
X161839Y279925D01*
X161803Y279945D01*
X161772Y279971D01*
X161665Y280021D01*
X161560Y280079D01*
X161521Y280089D01*
X161484Y280106D01*
X161368Y280128D01*
X161252Y280158D01*
X161192Y280162D01*
X161172Y280166D01*
X161152Y280165D01*
X161092Y280168D01*
X160719Y280168D01*
X160621Y280156D01*
X160522Y280153D01*
X160464Y280136D01*
X160404Y280129D01*
X160312Y280092D01*
X160216Y280065D01*
X160164Y280034D01*
X160108Y280012D01*
X160028Y279953D01*
X159942Y279903D01*
X159867Y279837D01*
X159851Y279825D01*
X159843Y279815D01*
X159822Y279797D01*
X159416Y279391D01*
X159355Y279312D01*
X159287Y279240D01*
X159258Y279187D01*
X159221Y279139D01*
X159181Y279048D01*
X159134Y278962D01*
X159118Y278903D01*
X159094Y278847D01*
X159079Y278750D01*
X159054Y278654D01*
X159048Y278554D01*
X159044Y278533D01*
X159046Y278521D01*
X159044Y278493D01*
X159042Y203532D01*
X159055Y203434D01*
X159058Y203335D01*
X159075Y203277D01*
X159082Y203217D01*
X159119Y203125D01*
X159146Y203030D01*
X159177Y202978D01*
X159199Y202921D01*
X159258Y202841D01*
X159308Y202756D01*
X159374Y202680D01*
X159386Y202664D01*
X159396Y202656D01*
X159414Y202635D01*
X160645Y201404D01*
X161418Y199537D01*
X161418Y197515D01*
X160645Y195648D01*
X159216Y194219D01*
X157348Y193445D01*
X155327Y193445D01*
X153460Y194219D01*
X152030Y195648D01*
X151257Y197515D01*
X151257Y199537D01*
X152030Y201404D01*
X153081Y202455D01*
X153142Y202533D01*
X153210Y202605D01*
X153239Y202658D01*
X153276Y202706D01*
X153316Y202797D01*
X153363Y202884D01*
X153378Y202942D01*
X153403Y202998D01*
X153418Y203096D01*
X153443Y203192D01*
X153449Y203292D01*
X153452Y203312D01*
X153451Y203324D01*
X153453Y203352D01*
X153454Y242579D01*
X153436Y242717D01*
X153423Y242855D01*
X153416Y242874D01*
X153414Y242894D01*
X153363Y243024D01*
X153316Y243155D01*
X153304Y243171D01*
X153297Y243190D01*
X153215Y243303D01*
X153137Y243418D01*
X153122Y243431D01*
X153110Y243447D01*
X153003Y243536D01*
X152899Y243628D01*
X152881Y243637D01*
X152865Y243650D01*
X152739Y243709D01*
X152615Y243773D01*
X152596Y243777D01*
X152577Y243786D01*
X152441Y243812D01*
X152305Y243842D01*
X152285Y243842D01*
X152265Y243846D01*
X152126Y243837D01*
X151987Y243833D01*
X151968Y243827D01*
X151948Y243826D01*
X151816Y243783D01*
X151682Y243744D01*
X151664Y243734D01*
X151645Y243728D01*
X151528Y243654D01*
X151408Y243583D01*
X151387Y243564D01*
X151376Y243558D01*
X151362Y243543D01*
X151287Y243476D01*
X151139Y243328D01*
X149272Y242555D01*
X147251Y242555D01*
X146813Y242736D01*
X146804Y242739D01*
X146796Y242743D01*
X146651Y242780D01*
X146506Y242820D01*
X146497Y242820D01*
X146488Y242823D01*
X146327Y242833D01*
X88954Y242833D01*
X88856Y242820D01*
X88757Y242817D01*
X88699Y242801D01*
X88638Y242793D01*
X88546Y242757D01*
X88451Y242729D01*
X88399Y242698D01*
X88343Y242676D01*
X88263Y242618D01*
X88177Y242567D01*
X88102Y242501D01*
X88085Y242489D01*
X88078Y242480D01*
X88057Y242461D01*
X78931Y233335D01*
X78900Y233296D01*
X78864Y233263D01*
X78803Y233171D01*
X78736Y233084D01*
X78716Y233038D01*
X78689Y232997D01*
X78653Y232893D01*
X78610Y232792D01*
X78602Y232743D01*
X78586Y232696D01*
X78577Y232587D01*
X78560Y232478D01*
X78564Y232429D01*
X78561Y232379D01*
X78579Y232271D01*
X78590Y232162D01*
X78606Y232115D01*
X78615Y232066D01*
X78660Y231966D01*
X78697Y231862D01*
X78725Y231821D01*
X78746Y231776D01*
X78814Y231690D01*
X78876Y231599D01*
X78913Y231566D01*
X78944Y231527D01*
X79032Y231461D01*
X79114Y231389D01*
X79158Y231366D01*
X79198Y231336D01*
X79343Y231265D01*
X81246Y230477D01*
X82675Y229048D01*
X83449Y227180D01*
X83449Y225159D01*
X82675Y223292D01*
X81246Y221862D01*
X79379Y221089D01*
X77511Y221089D01*
X77413Y221077D01*
X77314Y221074D01*
X77256Y221057D01*
X77196Y221049D01*
X77104Y221013D01*
X77008Y220985D01*
X76956Y220954D01*
X76900Y220932D01*
X76820Y220874D01*
X76734Y220824D01*
X76659Y220757D01*
X76643Y220745D01*
X76635Y220736D01*
X76614Y220717D01*
X42695Y186798D01*
X42634Y186720D01*
X42566Y186648D01*
X42537Y186595D01*
X42500Y186547D01*
X42460Y186456D01*
X42412Y186369D01*
X42397Y186311D01*
X42373Y186255D01*
X42358Y186157D01*
X42333Y186061D01*
X42327Y185961D01*
X42323Y185941D01*
X42325Y185929D01*
X42323Y185901D01*
X42323Y184816D01*
X41549Y182949D01*
X40120Y181519D01*
X38253Y180746D01*
X36231Y180746D01*
X35369Y181103D01*
X35321Y181116D01*
X35276Y181137D01*
X35168Y181158D01*
X35062Y181187D01*
X35013Y181188D01*
X34964Y181197D01*
X34854Y181190D01*
X34744Y181192D01*
X34696Y181180D01*
X34646Y181177D01*
X34542Y181144D01*
X34435Y181118D01*
X34391Y181095D01*
X34344Y181079D01*
X34251Y181021D01*
X34154Y180969D01*
X34117Y180936D01*
X34075Y180909D01*
X34000Y180829D01*
X33919Y180755D01*
X33891Y180714D01*
X33857Y180678D01*
X33804Y180581D01*
X33744Y180490D01*
X33728Y180443D01*
X33704Y180399D01*
X33676Y180293D01*
X33641Y180189D01*
X33637Y180139D01*
X33624Y180091D01*
X33614Y179930D01*
X33614Y177632D01*
X33618Y177603D01*
X33615Y177574D01*
X33638Y177446D01*
X33654Y177317D01*
X33665Y177289D01*
X33670Y177260D01*
X33723Y177142D01*
X33771Y177021D01*
X33788Y176997D01*
X33800Y176970D01*
X33881Y176869D01*
X33958Y176764D01*
X33981Y176745D01*
X33999Y176722D01*
X34103Y176644D01*
X34203Y176561D01*
X34229Y176548D01*
X34253Y176531D01*
X34398Y176460D01*
X36191Y175717D01*
X37620Y174288D01*
X38014Y173336D01*
X38039Y173293D01*
X38056Y173246D01*
X38117Y173155D01*
X38172Y173060D01*
X38206Y173024D01*
X38234Y172983D01*
X38317Y172910D01*
X38393Y172831D01*
X38435Y172805D01*
X38473Y172773D01*
X38571Y172723D01*
X38664Y172665D01*
X38712Y172651D01*
X38756Y172628D01*
X38863Y172604D01*
X38968Y172572D01*
X39018Y172569D01*
X39066Y172558D01*
X39176Y172562D01*
X39286Y172556D01*
X39334Y172566D01*
X39384Y172568D01*
X39489Y172598D01*
X39597Y172621D01*
X39642Y172643D01*
X39690Y172656D01*
X39784Y172712D01*
X39883Y172760D01*
X39921Y172793D01*
X39963Y172818D01*
X40084Y172924D01*
X100377Y233217D01*
X102386Y235226D01*
X133354Y235226D01*
X133452Y235238D01*
X133551Y235241D01*
X133610Y235258D01*
X133670Y235266D01*
X133762Y235302D01*
X133857Y235329D01*
X133909Y235360D01*
X133965Y235383D01*
X134045Y235441D01*
X134131Y235491D01*
X134206Y235557D01*
X134223Y235569D01*
X134230Y235579D01*
X134252Y235597D01*
X135175Y236521D01*
X137042Y237294D01*
X139063Y237294D01*
X140931Y236521D01*
X142360Y235091D01*
X143133Y233224D01*
X143133Y231203D01*
X142360Y229335D01*
X140931Y227906D01*
X139063Y227133D01*
X137042Y227133D01*
X135175Y227906D01*
X133816Y229264D01*
X133738Y229325D01*
X133666Y229393D01*
X133613Y229422D01*
X133565Y229459D01*
X133474Y229499D01*
X133388Y229547D01*
X133329Y229562D01*
X133273Y229586D01*
X133175Y229601D01*
X133080Y229626D01*
X132980Y229632D01*
X132959Y229636D01*
X132947Y229634D01*
X132919Y229636D01*
X113559Y229636D01*
X113510Y229630D01*
X113460Y229632D01*
X113353Y229610D01*
X113243Y229596D01*
X113197Y229578D01*
X113149Y229568D01*
X113050Y229520D01*
X112948Y229479D01*
X112908Y229450D01*
X112863Y229428D01*
X112779Y229357D01*
X112690Y229292D01*
X112659Y229254D01*
X112621Y229222D01*
X112558Y229132D01*
X112488Y229048D01*
X112466Y229003D01*
X112438Y228962D01*
X112399Y228859D01*
X112352Y228760D01*
X112343Y228711D01*
X112325Y228665D01*
X112313Y228555D01*
X112292Y228447D01*
X112295Y228398D01*
X112290Y228348D01*
X112305Y228240D01*
X112312Y228130D01*
X112327Y228083D01*
X112334Y228034D01*
X112386Y227881D01*
X112803Y226875D01*
X112803Y225261D01*
X112816Y225163D01*
X112819Y225064D01*
X112836Y225006D01*
X112843Y224946D01*
X112880Y224854D01*
X112907Y224759D01*
X112938Y224706D01*
X112960Y224650D01*
X113018Y224570D01*
X113069Y224485D01*
X113135Y224409D01*
X113147Y224393D01*
X113156Y224385D01*
X113175Y224364D01*
X131684Y205855D01*
X131723Y205824D01*
X131757Y205788D01*
X131848Y205727D01*
X131935Y205660D01*
X131981Y205640D01*
X132023Y205613D01*
X132126Y205577D01*
X132227Y205533D01*
X132276Y205526D01*
X132323Y205510D01*
X132433Y205501D01*
X132541Y205484D01*
X132591Y205488D01*
X132640Y205484D01*
X132748Y205503D01*
X132858Y205513D01*
X132905Y205530D01*
X132954Y205539D01*
X133054Y205584D01*
X133157Y205621D01*
X133198Y205649D01*
X133244Y205669D01*
X133330Y205738D01*
X133420Y205800D01*
X133453Y205837D01*
X133492Y205868D01*
X133558Y205956D01*
X133631Y206038D01*
X133653Y206082D01*
X133683Y206122D01*
X133754Y206267D01*
X134137Y207191D01*
X135566Y208620D01*
X137434Y209394D01*
X139455Y209394D01*
X141322Y208620D01*
X142752Y207191D01*
X143525Y205323D01*
X143525Y203302D01*
X142752Y201435D01*
X141819Y200502D01*
X141758Y200424D01*
X141690Y200352D01*
X141661Y200299D01*
X141624Y200251D01*
X141584Y200160D01*
X141537Y200073D01*
X141521Y200014D01*
X141497Y199959D01*
X141482Y199861D01*
X141457Y199765D01*
X141451Y199665D01*
X141448Y199645D01*
X141449Y199632D01*
X141447Y199604D01*
X141447Y187608D01*
X139438Y185600D01*
X139438Y185599D01*
X138504Y184665D01*
X136495Y182656D01*
X117408Y182656D01*
X117399Y182655D01*
X117389Y182656D01*
X117270Y182639D01*
X114995Y182639D01*
X114979Y182644D01*
X114970Y182644D01*
X114961Y182646D01*
X114800Y182656D01*
X107053Y182656D01*
X106955Y182644D01*
X106856Y182641D01*
X106798Y182624D01*
X106738Y182616D01*
X106646Y182580D01*
X106551Y182552D01*
X106498Y182522D01*
X106442Y182499D01*
X106362Y182441D01*
X106277Y182391D01*
X106201Y182325D01*
X106185Y182313D01*
X106177Y182303D01*
X106156Y182284D01*
X75590Y151719D01*
X58175Y151719D01*
X58076Y151706D01*
X57977Y151703D01*
X57919Y151686D01*
X57859Y151679D01*
X57767Y151642D01*
X57672Y151615D01*
X57620Y151584D01*
X57563Y151562D01*
X57483Y151504D01*
X57398Y151453D01*
X57323Y151387D01*
X57306Y151375D01*
X57298Y151365D01*
X57277Y151347D01*
X44344Y138414D01*
X44284Y138336D01*
X44216Y138264D01*
X44187Y138211D01*
X44150Y138163D01*
X44110Y138072D01*
X44062Y137985D01*
X44047Y137927D01*
X44023Y137871D01*
X44008Y137773D01*
X43983Y137677D01*
X43977Y137577D01*
X43973Y137557D01*
X43975Y137545D01*
X43973Y137517D01*
X43973Y135903D01*
X43199Y134036D01*
X42940Y133777D01*
X42879Y133699D01*
X42811Y133626D01*
X42782Y133573D01*
X42745Y133526D01*
X42706Y133435D01*
X42658Y133348D01*
X42643Y133289D01*
X42619Y133234D01*
X42603Y133136D01*
X42579Y133040D01*
X42572Y132940D01*
X42569Y132920D01*
X42570Y132907D01*
X42568Y132879D01*
X42568Y114025D01*
X42581Y113927D01*
X42584Y113827D01*
X42601Y113769D01*
X42608Y113709D01*
X42645Y113617D01*
X42672Y113522D01*
X42703Y113470D01*
X42725Y113413D01*
X42783Y113333D01*
X42834Y113248D01*
X42900Y113173D01*
X42912Y113156D01*
X42921Y113148D01*
X42940Y113127D01*
X44215Y111852D01*
X44989Y109985D01*
X44989Y107963D01*
X44950Y107869D01*
X44931Y107802D01*
X44903Y107738D01*
X44889Y107649D01*
X44866Y107562D01*
X44865Y107493D01*
X44854Y107424D01*
X44862Y107334D01*
X44861Y107244D01*
X44877Y107176D01*
X44883Y107107D01*
X44914Y107022D01*
X44935Y106935D01*
X44967Y106873D01*
X44991Y106808D01*
X45041Y106733D01*
X45083Y106654D01*
X45130Y106602D01*
X45170Y106544D01*
X45237Y106485D01*
X45297Y106419D01*
X45356Y106380D01*
X45408Y106334D01*
X45488Y106293D01*
X45563Y106244D01*
X45629Y106221D01*
X45691Y106189D01*
X45779Y106170D01*
X45864Y106141D01*
X45934Y106135D01*
X46002Y106120D01*
X46091Y106122D01*
X46181Y106115D01*
X46250Y106127D01*
X46319Y106129D01*
X46406Y106154D01*
X46494Y106170D01*
X46558Y106198D01*
X46625Y106218D01*
X46702Y106263D01*
X46784Y106300D01*
X46839Y106344D01*
X46899Y106379D01*
X47020Y106486D01*
X51982Y111448D01*
X52042Y111526D01*
X52110Y111598D01*
X52139Y111651D01*
X52176Y111699D01*
X52216Y111790D01*
X52264Y111876D01*
X52279Y111935D01*
X52303Y111991D01*
X52318Y112089D01*
X52343Y112184D01*
X52349Y112284D01*
X52353Y112305D01*
X52351Y112317D01*
X52353Y112345D01*
X52353Y132125D01*
X52341Y132223D01*
X52338Y132322D01*
X52321Y132380D01*
X52313Y132440D01*
X52277Y132532D01*
X52249Y132627D01*
X52219Y132680D01*
X52196Y132736D01*
X52138Y132816D01*
X52088Y132901D01*
X52022Y132977D01*
X52010Y132993D01*
X52000Y133001D01*
X51982Y133022D01*
X50841Y134163D01*
X50067Y136030D01*
X50067Y138052D01*
X50841Y139919D01*
X52270Y141348D01*
X54137Y142122D01*
X56159Y142122D01*
X58026Y141348D01*
X59455Y139919D01*
X60229Y138052D01*
X60229Y136030D01*
X59455Y134163D01*
X58314Y133022D01*
X58254Y132944D01*
X58186Y132872D01*
X58157Y132819D01*
X58120Y132771D01*
X58080Y132680D01*
X58032Y132593D01*
X58017Y132535D01*
X57993Y132479D01*
X57978Y132381D01*
X57953Y132285D01*
X57947Y132185D01*
X57943Y132165D01*
X57945Y132153D01*
X57943Y132125D01*
X57943Y109504D01*
X40140Y91701D01*
X30106Y91701D01*
X29629Y92178D01*
X29550Y92239D01*
X29478Y92307D01*
X29425Y92336D01*
X29377Y92373D01*
X29286Y92413D01*
X29200Y92460D01*
X29141Y92476D01*
X29086Y92500D01*
X28988Y92515D01*
X28892Y92540D01*
X28792Y92546D01*
X28771Y92550D01*
X28759Y92548D01*
X28731Y92550D01*
X27118Y92550D01*
X25251Y93324D01*
X24986Y93588D01*
X24896Y93658D01*
X24868Y93684D01*
X24853Y93693D01*
X24769Y93762D01*
X24751Y93771D01*
X24735Y93783D01*
X24607Y93838D01*
X24481Y93897D01*
X24462Y93901D01*
X24443Y93909D01*
X24305Y93931D01*
X24169Y93957D01*
X24149Y93956D01*
X24129Y93959D01*
X23990Y93946D01*
X23852Y93937D01*
X23832Y93931D01*
X23812Y93929D01*
X23681Y93882D01*
X23549Y93839D01*
X23532Y93829D01*
X23513Y93822D01*
X23398Y93744D01*
X23280Y93669D01*
X23267Y93655D01*
X23250Y93643D01*
X23158Y93539D01*
X23063Y93438D01*
X23053Y93420D01*
X23039Y93405D01*
X22976Y93281D01*
X22909Y93159D01*
X22904Y93140D01*
X22895Y93122D01*
X22864Y92985D01*
X22830Y92851D01*
X22828Y92823D01*
X22825Y92811D01*
X22826Y92791D01*
X22823Y92743D01*
X22822Y92739D01*
X22822Y92735D01*
X22819Y92691D01*
X22819Y70538D01*
X22821Y70524D01*
X22820Y70509D01*
X22841Y70366D01*
X22859Y70223D01*
X22865Y70209D01*
X22867Y70194D01*
X22923Y70061D01*
X22976Y69927D01*
X22985Y69915D01*
X22991Y69902D01*
X23078Y69787D01*
X23163Y69670D01*
X23175Y69660D01*
X23184Y69649D01*
X23296Y69559D01*
X23408Y69467D01*
X23421Y69461D01*
X23433Y69452D01*
X23565Y69393D01*
X23696Y69332D01*
X23710Y69329D01*
X23724Y69323D01*
X23866Y69299D01*
X24008Y69272D01*
X24023Y69273D01*
X24038Y69270D01*
X24182Y69283D01*
X24326Y69292D01*
X24340Y69296D01*
X24354Y69297D01*
X24491Y69345D01*
X24628Y69390D01*
X24641Y69397D01*
X24655Y69402D01*
X24794Y69483D01*
X24814Y69497D01*
X26330Y70125D01*
X27136Y70285D01*
X27136Y62469D01*
X27151Y62351D01*
X27158Y62232D01*
X27170Y62194D01*
X27176Y62154D01*
X27191Y62115D01*
X27176Y62035D01*
X27146Y61919D01*
X27142Y61859D01*
X27138Y61839D01*
X27140Y61819D01*
X27136Y61759D01*
X27136Y53767D01*
X27066Y53735D01*
X26968Y53699D01*
X26922Y53668D01*
X26872Y53645D01*
X26791Y53579D01*
X26705Y53521D01*
X26668Y53479D01*
X26625Y53444D01*
X26563Y53360D01*
X26494Y53282D01*
X26469Y53233D01*
X26436Y53189D01*
X26397Y53092D01*
X26349Y52999D01*
X26337Y52945D01*
X26317Y52894D01*
X26303Y52790D01*
X26280Y52689D01*
X26282Y52633D01*
X26274Y52579D01*
X26286Y52475D01*
X26289Y52371D01*
X26305Y52318D01*
X26311Y52263D01*
X26349Y52166D01*
X26378Y52065D01*
X26406Y52018D01*
X26426Y51966D01*
X26486Y51881D01*
X26539Y51791D01*
X26598Y51725D01*
X26610Y51707D01*
X26622Y51698D01*
X26646Y51670D01*
X36240Y42076D01*
X36318Y42016D01*
X36390Y41948D01*
X36443Y41919D01*
X36491Y41882D01*
X36582Y41842D01*
X36669Y41794D01*
X36727Y41779D01*
X36783Y41755D01*
X36881Y41740D01*
X36977Y41715D01*
X37077Y41709D01*
X37097Y41705D01*
X37109Y41707D01*
X37137Y41705D01*
X108573Y41705D01*
X108671Y41717D01*
X108770Y41720D01*
X108829Y41737D01*
X108889Y41745D01*
X108981Y41781D01*
X109076Y41809D01*
X109128Y41839D01*
X109184Y41862D01*
X109264Y41920D01*
X109350Y41970D01*
X109425Y42036D01*
X109442Y42048D01*
X109449Y42058D01*
X109471Y42076D01*
X119749Y52354D01*
X119792Y52410D01*
X119842Y52458D01*
X119888Y52535D01*
X119944Y52606D01*
X119971Y52670D01*
X120008Y52729D01*
X120034Y52815D01*
X120070Y52898D01*
X120081Y52967D01*
X120101Y53033D01*
X120106Y53123D01*
X120120Y53212D01*
X120113Y53281D01*
X120117Y53351D01*
X120098Y53439D01*
X120090Y53528D01*
X120066Y53594D01*
X120052Y53662D01*
X120013Y53743D01*
X119982Y53828D01*
X119943Y53885D01*
X119912Y53948D01*
X119854Y54016D01*
X119804Y54091D01*
X119751Y54137D01*
X119706Y54190D01*
X119633Y54242D01*
X119565Y54301D01*
X119503Y54333D01*
X119446Y54373D01*
X119362Y54405D01*
X119282Y54446D01*
X119214Y54461D01*
X119149Y54486D01*
X119059Y54496D01*
X118972Y54515D01*
X118902Y54513D01*
X118833Y54521D01*
X118744Y54509D01*
X118654Y54506D01*
X118587Y54486D01*
X118518Y54477D01*
X118365Y54425D01*
X117590Y54103D01*
X116784Y53943D01*
X116784Y60490D01*
X123331Y60490D01*
X123171Y59684D01*
X122849Y58909D01*
X122831Y58841D01*
X122803Y58777D01*
X122789Y58688D01*
X122765Y58602D01*
X122764Y58532D01*
X122753Y58463D01*
X122762Y58374D01*
X122760Y58284D01*
X122777Y58216D01*
X122783Y58147D01*
X122814Y58062D01*
X122835Y57975D01*
X122867Y57913D01*
X122891Y57847D01*
X122941Y57773D01*
X122983Y57694D01*
X123030Y57642D01*
X123069Y57584D01*
X123137Y57525D01*
X123197Y57458D01*
X123255Y57420D01*
X123308Y57374D01*
X123388Y57333D01*
X123463Y57283D01*
X123529Y57261D01*
X123591Y57229D01*
X123679Y57209D01*
X123764Y57180D01*
X123833Y57175D01*
X123901Y57159D01*
X123991Y57162D01*
X124081Y57155D01*
X124149Y57167D01*
X124219Y57169D01*
X124306Y57194D01*
X124394Y57209D01*
X124458Y57238D01*
X124525Y57257D01*
X124602Y57303D01*
X124684Y57340D01*
X124738Y57383D01*
X124799Y57419D01*
X124920Y57525D01*
X132940Y65546D01*
X133000Y65624D01*
X133068Y65696D01*
X133098Y65749D01*
X133135Y65797D01*
X133174Y65888D01*
X133222Y65974D01*
X133237Y66033D01*
X133261Y66089D01*
X133277Y66187D01*
X133301Y66282D01*
X133308Y66382D01*
X133311Y66403D01*
X133310Y66415D01*
X133312Y66443D01*
X133312Y67778D01*
X134085Y69645D01*
X135514Y71074D01*
X137382Y71848D01*
X138995Y71848D01*
X139093Y71860D01*
X139192Y71863D01*
X139250Y71880D01*
X139310Y71888D01*
X139403Y71924D01*
X139498Y71952D01*
X139550Y71982D01*
X139606Y72005D01*
X139686Y72063D01*
X139772Y72113D01*
X139847Y72180D01*
X139863Y72192D01*
X139871Y72201D01*
X139892Y72220D01*
X149890Y82217D01*
X149963Y82311D01*
X150042Y82400D01*
X150060Y82436D01*
X150085Y82468D01*
X150132Y82578D01*
X150186Y82684D01*
X150195Y82723D01*
X150211Y82760D01*
X150230Y82878D01*
X150256Y82994D01*
X150255Y83034D01*
X150261Y83074D01*
X150250Y83193D01*
X150246Y83312D01*
X150235Y83351D01*
X150231Y83391D01*
X150191Y83503D01*
X150158Y83617D01*
X150137Y83652D01*
X150124Y83690D01*
X150057Y83789D01*
X149996Y83891D01*
X149956Y83936D01*
X149945Y83953D01*
X149930Y83967D01*
X149890Y84012D01*
X149393Y84509D01*
X148619Y86377D01*
X148619Y88398D01*
X149251Y89923D01*
X149282Y90038D01*
X149321Y90150D01*
X149324Y90191D01*
X149335Y90230D01*
X149337Y90348D01*
X149346Y90467D01*
X149339Y90507D01*
X149340Y90548D01*
X149312Y90663D01*
X149292Y90781D01*
X149275Y90817D01*
X149266Y90857D01*
X149210Y90962D01*
X149161Y91071D01*
X149136Y91102D01*
X149117Y91138D01*
X149037Y91226D01*
X148963Y91319D01*
X148930Y91343D01*
X148903Y91373D01*
X148804Y91439D01*
X148708Y91510D01*
X148654Y91537D01*
X148637Y91548D01*
X148618Y91555D01*
X148564Y91581D01*
X146071Y92614D01*
X143091Y95594D01*
X141479Y99487D01*
X141479Y103701D01*
X143091Y107594D01*
X146071Y110574D01*
X149964Y112187D01*
X154178Y112187D01*
X158072Y110574D01*
X161051Y107594D01*
X162664Y103701D01*
X162664Y99487D01*
X161051Y95594D01*
X158062Y92604D01*
X158030Y92593D01*
X157940Y92531D01*
X157844Y92476D01*
X157808Y92442D01*
X157767Y92414D01*
X157695Y92332D01*
X157616Y92255D01*
X157590Y92213D01*
X157557Y92175D01*
X157507Y92078D01*
X157449Y91984D01*
X157435Y91937D01*
X157412Y91892D01*
X157388Y91785D01*
X157356Y91680D01*
X157353Y91630D01*
X157343Y91582D01*
X157346Y91472D01*
X157341Y91362D01*
X157351Y91314D01*
X157352Y91264D01*
X157383Y91159D01*
X157405Y91051D01*
X157427Y91006D01*
X157441Y90959D01*
X157496Y90864D01*
X157545Y90765D01*
X157577Y90728D01*
X157602Y90685D01*
X157709Y90564D01*
X158007Y90265D01*
X158781Y88398D01*
X158781Y86377D01*
X158007Y84509D01*
X156866Y83368D01*
X156806Y83290D01*
X156738Y83218D01*
X156709Y83165D01*
X156671Y83117D01*
X156632Y83026D01*
X156584Y82940D01*
X156569Y82881D01*
X156545Y82825D01*
X156530Y82727D01*
X156505Y82632D01*
X156498Y82532D01*
X156495Y82511D01*
X156496Y82499D01*
X156495Y82471D01*
X156495Y80917D01*
X154486Y78908D01*
X143845Y68267D01*
X143784Y68189D01*
X143716Y68117D01*
X143687Y68064D01*
X143650Y68016D01*
X143610Y67925D01*
X143563Y67838D01*
X143548Y67780D01*
X143523Y67724D01*
X143508Y67626D01*
X143483Y67530D01*
X143477Y67430D01*
X143474Y67410D01*
X143475Y67398D01*
X143473Y67370D01*
X143473Y65756D01*
X142700Y63889D01*
X141270Y62460D01*
X139403Y61686D01*
X137511Y61686D01*
X137413Y61674D01*
X137314Y61671D01*
X137255Y61654D01*
X137195Y61647D01*
X137103Y61610D01*
X137008Y61583D01*
X136956Y61552D01*
X136900Y61530D01*
X136820Y61471D01*
X136734Y61421D01*
X136659Y61355D01*
X136642Y61343D01*
X136635Y61333D01*
X136613Y61315D01*
X119170Y43871D01*
X119085Y43762D01*
X118996Y43655D01*
X118988Y43636D01*
X118975Y43620D01*
X118920Y43492D01*
X118861Y43367D01*
X118857Y43347D01*
X118849Y43328D01*
X118827Y43190D01*
X118801Y43054D01*
X118802Y43034D01*
X118799Y43014D01*
X118812Y42875D01*
X118821Y42737D01*
X118827Y42718D01*
X118829Y42698D01*
X118876Y42566D01*
X118919Y42435D01*
X118930Y42417D01*
X118937Y42398D01*
X119015Y42283D01*
X119089Y42166D01*
X119104Y42152D01*
X119115Y42135D01*
X119219Y42043D01*
X119321Y41948D01*
X119338Y41938D01*
X119354Y41925D01*
X119477Y41861D01*
X119599Y41794D01*
X119619Y41789D01*
X119637Y41780D01*
X119773Y41750D01*
X119907Y41715D01*
X119935Y41713D01*
X119947Y41710D01*
X119968Y41711D01*
X120068Y41705D01*
X141580Y41705D01*
X141678Y41717D01*
X141777Y41720D01*
X141835Y41737D01*
X141895Y41745D01*
X141987Y41781D01*
X142082Y41809D01*
X142135Y41839D01*
X142191Y41862D01*
X142271Y41920D01*
X142356Y41970D01*
X142432Y42036D01*
X142448Y42048D01*
X142456Y42058D01*
X142477Y42076D01*
X143618Y43217D01*
X145485Y43991D01*
X147507Y43991D01*
X149374Y43217D01*
X150803Y41788D01*
X151577Y39921D01*
X151577Y39371D01*
X151589Y39273D01*
X151592Y39174D01*
X151609Y39116D01*
X151617Y39056D01*
X151653Y38964D01*
X151681Y38869D01*
X151711Y38816D01*
X151734Y38760D01*
X151792Y38680D01*
X151842Y38595D01*
X151908Y38519D01*
X151920Y38503D01*
X151930Y38495D01*
X151948Y38474D01*
X154015Y36408D01*
X154038Y36389D01*
X154057Y36367D01*
X154163Y36292D01*
X154266Y36213D01*
X154293Y36201D01*
X154317Y36184D01*
X154439Y36138D01*
X154558Y36086D01*
X154587Y36082D01*
X154615Y36071D01*
X154744Y36057D01*
X154872Y36036D01*
X154901Y36039D01*
X154931Y36036D01*
X155059Y36054D01*
X155189Y36066D01*
X155216Y36076D01*
X155246Y36080D01*
X155398Y36132D01*
X156856Y36736D01*
X158877Y36736D01*
X160745Y35963D01*
X160981Y35726D01*
X161059Y35666D01*
X161131Y35598D01*
X161184Y35569D01*
X161232Y35532D01*
X161323Y35492D01*
X161410Y35444D01*
X161468Y35429D01*
X161524Y35405D01*
X161622Y35390D01*
X161718Y35365D01*
X161818Y35359D01*
X161838Y35355D01*
X161851Y35357D01*
X161879Y35355D01*
X166012Y35355D01*
X166110Y35367D01*
X166209Y35370D01*
X166267Y35387D01*
X166327Y35395D01*
X166419Y35431D01*
X166514Y35459D01*
X166567Y35489D01*
X166623Y35512D01*
X166703Y35570D01*
X166788Y35620D01*
X166864Y35686D01*
X166880Y35698D01*
X166888Y35708D01*
X166909Y35726D01*
X168050Y36867D01*
X169917Y37641D01*
X171446Y37641D01*
X171544Y37653D01*
X171643Y37656D01*
X171701Y37673D01*
X171761Y37681D01*
X171853Y37717D01*
X171948Y37745D01*
X172000Y37775D01*
X172057Y37798D01*
X172137Y37856D01*
X172222Y37906D01*
X172298Y37972D01*
X172314Y37984D01*
X172322Y37994D01*
X172343Y38012D01*
X184186Y49856D01*
X184247Y49934D01*
X184315Y50006D01*
X184344Y50059D01*
X184381Y50107D01*
X184421Y50198D01*
X184469Y50285D01*
X184484Y50343D01*
X184508Y50399D01*
X184523Y50497D01*
X184548Y50593D01*
X184554Y50682D01*
X184556Y50692D01*
X184555Y50699D01*
X184558Y50713D01*
X184556Y50725D01*
X184558Y50753D01*
X184558Y77682D01*
X184546Y77780D01*
X184543Y77879D01*
X184526Y77937D01*
X184518Y77997D01*
X184482Y78089D01*
X184454Y78184D01*
X184424Y78237D01*
X184401Y78293D01*
X184343Y78373D01*
X184293Y78458D01*
X184226Y78534D01*
X184214Y78550D01*
X184205Y78558D01*
X184186Y78579D01*
X183046Y79720D01*
X182272Y81587D01*
X182272Y83609D01*
X183046Y85476D01*
X184475Y86905D01*
X186342Y87679D01*
X188364Y87679D01*
X190231Y86905D01*
X191660Y85476D01*
X192434Y83609D01*
X192434Y81587D01*
X191660Y79720D01*
X190519Y78579D01*
X190459Y78501D01*
X190391Y78429D01*
X190362Y78376D01*
X190324Y78328D01*
X190285Y78237D01*
X190237Y78150D01*
X190222Y78092D01*
X190198Y78036D01*
X190183Y77938D01*
X190158Y77842D01*
X190152Y77742D01*
X190148Y77722D01*
X190149Y77710D01*
X190148Y77682D01*
X190148Y47912D01*
X176380Y34145D01*
X176320Y34067D01*
X176252Y33995D01*
X176223Y33942D01*
X176186Y33894D01*
X176146Y33803D01*
X176098Y33716D01*
X176083Y33658D01*
X176059Y33602D01*
X176044Y33504D01*
X176019Y33408D01*
X176013Y33308D01*
X176009Y33288D01*
X176011Y33276D01*
X176009Y33248D01*
X176009Y31549D01*
X175235Y29682D01*
X173806Y28253D01*
X171939Y27479D01*
X169917Y27479D01*
X168050Y28253D01*
X166909Y29394D01*
X166831Y29454D01*
X166759Y29522D01*
X166706Y29551D01*
X166658Y29588D01*
X166567Y29628D01*
X166480Y29676D01*
X166422Y29691D01*
X166366Y29715D01*
X166268Y29730D01*
X166172Y29755D01*
X166072Y29761D01*
X166052Y29765D01*
X166040Y29763D01*
X166012Y29765D01*
X163431Y29765D01*
X163402Y29762D01*
X163372Y29764D01*
X163244Y29742D01*
X163115Y29725D01*
X163088Y29715D01*
X163059Y29710D01*
X162940Y29656D01*
X162820Y29608D01*
X162796Y29591D01*
X162769Y29579D01*
X162668Y29498D01*
X162562Y29422D01*
X162544Y29399D01*
X162521Y29380D01*
X162443Y29277D01*
X162360Y29177D01*
X162347Y29150D01*
X162329Y29126D01*
X162258Y28982D01*
X162174Y28778D01*
X160745Y27348D01*
X158877Y26575D01*
X156856Y26575D01*
X154989Y27348D01*
X153559Y28778D01*
X153475Y28982D01*
X153460Y29007D01*
X153451Y29035D01*
X153382Y29145D01*
X153317Y29258D01*
X153297Y29279D01*
X153281Y29304D01*
X153186Y29393D01*
X153096Y29486D01*
X153071Y29502D01*
X153049Y29522D01*
X152935Y29585D01*
X152929Y29589D01*
X148942Y33576D01*
X148919Y33594D01*
X148899Y33616D01*
X148793Y33691D01*
X148691Y33771D01*
X148663Y33782D01*
X148639Y33799D01*
X148518Y33845D01*
X148399Y33897D01*
X148370Y33902D01*
X148342Y33912D01*
X148213Y33926D01*
X148085Y33947D01*
X148055Y33944D01*
X148026Y33947D01*
X147898Y33929D01*
X147768Y33917D01*
X147740Y33907D01*
X147711Y33903D01*
X147559Y33851D01*
X147507Y33829D01*
X145485Y33829D01*
X143618Y34603D01*
X142477Y35744D01*
X142399Y35804D01*
X142327Y35872D01*
X142274Y35901D01*
X142226Y35938D01*
X142135Y35978D01*
X142048Y36026D01*
X141990Y36041D01*
X141934Y36065D01*
X141836Y36080D01*
X141740Y36105D01*
X141640Y36111D01*
X141620Y36115D01*
X141608Y36113D01*
X141580Y36115D01*
X34296Y36115D01*
X29921Y40491D01*
X29881Y40522D01*
X29848Y40558D01*
X29756Y40619D01*
X29669Y40686D01*
X29624Y40706D01*
X29582Y40733D01*
X29478Y40769D01*
X29377Y40812D01*
X29328Y40820D01*
X29281Y40836D01*
X29172Y40845D01*
X29063Y40862D01*
X29014Y40858D01*
X28964Y40862D01*
X28856Y40843D01*
X28747Y40832D01*
X28700Y40816D01*
X28651Y40807D01*
X28551Y40762D01*
X28447Y40725D01*
X28406Y40697D01*
X28361Y40677D01*
X28275Y40608D01*
X28184Y40546D01*
X28151Y40509D01*
X28113Y40478D01*
X28047Y40390D01*
X27974Y40308D01*
X27951Y40264D01*
X27921Y40224D01*
X27850Y40079D01*
X27218Y38553D01*
X25789Y37124D01*
X23730Y36271D01*
X23704Y36257D01*
X23676Y36248D01*
X23567Y36178D01*
X23454Y36114D01*
X23433Y36093D01*
X23408Y36077D01*
X23319Y35983D01*
X23225Y35892D01*
X23210Y35867D01*
X23190Y35846D01*
X23127Y35732D01*
X23059Y35621D01*
X23051Y35593D01*
X23036Y35567D01*
X23004Y35441D01*
X22966Y35317D01*
X22964Y35288D01*
X22957Y35259D01*
X22947Y35099D01*
X22947Y32373D01*
X22953Y32323D01*
X22950Y32274D01*
X22973Y32166D01*
X22986Y32057D01*
X23005Y32011D01*
X23015Y31962D01*
X23063Y31864D01*
X23103Y31761D01*
X23133Y31721D01*
X23154Y31677D01*
X23226Y31593D01*
X23290Y31504D01*
X23329Y31472D01*
X23361Y31435D01*
X23451Y31371D01*
X23535Y31301D01*
X23580Y31280D01*
X23621Y31252D01*
X23724Y31213D01*
X23823Y31166D01*
X23872Y31156D01*
X23918Y31139D01*
X24028Y31127D01*
X24135Y31106D01*
X24185Y31109D01*
X24234Y31104D01*
X24343Y31119D01*
X24453Y31126D01*
X24500Y31141D01*
X24549Y31148D01*
X24702Y31200D01*
X26330Y31875D01*
X27136Y32035D01*
X27136Y24219D01*
X27151Y24101D01*
X27158Y23982D01*
X27170Y23944D01*
X27176Y23904D01*
X27219Y23793D01*
X27256Y23680D01*
X27278Y23646D01*
X27293Y23608D01*
X27362Y23512D01*
X27426Y23411D01*
X27456Y23383D01*
X27479Y23351D01*
X27571Y23275D01*
X27658Y23193D01*
X27693Y23174D01*
X27724Y23148D01*
X27832Y23097D01*
X27936Y23040D01*
X27944Y23038D01*
X27966Y22970D01*
X27988Y22935D01*
X28003Y22898D01*
X28073Y22801D01*
X28136Y22701D01*
X28166Y22673D01*
X28190Y22640D01*
X28281Y22564D01*
X28368Y22483D01*
X28403Y22463D01*
X28435Y22438D01*
X28542Y22387D01*
X28647Y22329D01*
X28686Y22319D01*
X28722Y22302D01*
X28839Y22280D01*
X28955Y22250D01*
X29015Y22246D01*
X29035Y22242D01*
X29055Y22244D01*
X29115Y22240D01*
X36931Y22240D01*
X36771Y21434D01*
X36143Y19918D01*
X35231Y18553D01*
X34071Y17393D01*
X32706Y16481D01*
X31190Y15853D01*
X31132Y15842D01*
X31118Y15837D01*
X31103Y15836D01*
X30967Y15787D01*
X30831Y15741D01*
X30818Y15733D01*
X30804Y15728D01*
X30685Y15647D01*
X30563Y15569D01*
X30553Y15558D01*
X30541Y15550D01*
X30446Y15442D01*
X30347Y15335D01*
X30340Y15322D01*
X30331Y15311D01*
X30265Y15183D01*
X30196Y15056D01*
X30193Y15041D01*
X30186Y15028D01*
X30154Y14887D01*
X30119Y14747D01*
X30120Y14732D01*
X30116Y14718D01*
X30121Y14573D01*
X30122Y14429D01*
X30126Y14415D01*
X30126Y14400D01*
X30166Y14261D01*
X30203Y14121D01*
X30210Y14109D01*
X30214Y14094D01*
X30288Y13970D01*
X30358Y13844D01*
X30368Y13833D01*
X30376Y13820D01*
X30482Y13700D01*
X35935Y8246D01*
X36014Y8186D01*
X36086Y8118D01*
X36139Y8089D01*
X36187Y8052D01*
X36278Y8012D01*
X36364Y7964D01*
X36423Y7949D01*
X36479Y7925D01*
X36577Y7910D01*
X36672Y7885D01*
X36772Y7879D01*
X36793Y7875D01*
X36805Y7877D01*
X36833Y7875D01*
X212467Y7875D01*
X212496Y7878D01*
X212526Y7876D01*
X212654Y7898D01*
X212782Y7915D01*
X212810Y7925D01*
X212839Y7930D01*
X212958Y7984D01*
X213078Y8032D01*
X213102Y8049D01*
X213129Y8061D01*
X213230Y8142D01*
X213336Y8218D01*
X213354Y8241D01*
X213377Y8260D01*
X213456Y8363D01*
X213538Y8463D01*
X213551Y8490D01*
X213569Y8514D01*
X213640Y8658D01*
X214322Y10305D01*
X215751Y11735D01*
X217618Y12508D01*
X219640Y12508D01*
X221507Y11735D01*
X222936Y10305D01*
X223710Y8438D01*
X223710Y6417D01*
X223357Y5566D01*
X223344Y5518D01*
X223323Y5473D01*
X223302Y5365D01*
X223273Y5259D01*
X223273Y5209D01*
X223263Y5160D01*
X223270Y5051D01*
X223268Y4941D01*
X223280Y4893D01*
X223283Y4843D01*
X223317Y4739D01*
X223342Y4632D01*
X223366Y4588D01*
X223381Y4541D01*
X223440Y4448D01*
X223491Y4351D01*
X223525Y4314D01*
X223551Y4272D01*
X223631Y4197D01*
X223705Y4115D01*
X223747Y4088D01*
X223783Y4054D01*
X223879Y4001D01*
X223971Y3941D01*
X224018Y3924D01*
X224061Y3900D01*
X224167Y3873D01*
X224272Y3837D01*
X224321Y3833D01*
X224369Y3821D01*
X224530Y3811D01*
X256199Y3811D01*
X256200Y3811D01*
G37*
G36*
X70999Y161384D02*
X70999Y161384D01*
X71098Y161387D01*
X71157Y161404D01*
X71217Y161412D01*
X71309Y161448D01*
X71404Y161476D01*
X71456Y161507D01*
X71512Y161529D01*
X71592Y161587D01*
X71678Y161637D01*
X71753Y161704D01*
X71770Y161716D01*
X71777Y161725D01*
X71799Y161744D01*
X106989Y196934D01*
X129636Y196934D01*
X129773Y196952D01*
X129912Y196965D01*
X129931Y196972D01*
X129951Y196974D01*
X130080Y197025D01*
X130211Y197072D01*
X130228Y197084D01*
X130247Y197091D01*
X130359Y197173D01*
X130474Y197251D01*
X130488Y197266D01*
X130504Y197278D01*
X130593Y197385D01*
X130685Y197489D01*
X130694Y197507D01*
X130707Y197523D01*
X130766Y197649D01*
X130829Y197773D01*
X130834Y197792D01*
X130843Y197811D01*
X130869Y197947D01*
X130899Y198083D01*
X130899Y198103D01*
X130902Y198123D01*
X130894Y198262D01*
X130889Y198401D01*
X130884Y198420D01*
X130883Y198441D01*
X130840Y198573D01*
X130801Y198706D01*
X130791Y198724D01*
X130785Y198743D01*
X130710Y198860D01*
X130640Y198980D01*
X130621Y199001D01*
X130614Y199012D01*
X130600Y199026D01*
X130533Y199101D01*
X109223Y220411D01*
X109145Y220472D01*
X109072Y220540D01*
X109019Y220569D01*
X108972Y220606D01*
X108881Y220646D01*
X108794Y220694D01*
X108735Y220709D01*
X108680Y220733D01*
X108582Y220748D01*
X108486Y220773D01*
X108386Y220779D01*
X108366Y220783D01*
X108353Y220781D01*
X108325Y220783D01*
X106712Y220783D01*
X104845Y221557D01*
X103415Y222986D01*
X102571Y225024D01*
X102546Y225068D01*
X102530Y225114D01*
X102468Y225205D01*
X102413Y225301D01*
X102379Y225336D01*
X102351Y225377D01*
X102269Y225450D01*
X102192Y225529D01*
X102150Y225555D01*
X102113Y225588D01*
X102015Y225638D01*
X101921Y225695D01*
X101874Y225710D01*
X101829Y225733D01*
X101722Y225757D01*
X101617Y225789D01*
X101568Y225791D01*
X101519Y225802D01*
X101409Y225799D01*
X101299Y225804D01*
X101251Y225794D01*
X101201Y225793D01*
X101096Y225762D01*
X100988Y225740D01*
X100943Y225718D01*
X100896Y225704D01*
X100801Y225648D01*
X100702Y225600D01*
X100665Y225568D01*
X100622Y225543D01*
X100501Y225436D01*
X38825Y163760D01*
X38752Y163666D01*
X38673Y163577D01*
X38655Y163541D01*
X38630Y163509D01*
X38582Y163399D01*
X38528Y163293D01*
X38519Y163254D01*
X38503Y163217D01*
X38485Y163099D01*
X38459Y162983D01*
X38460Y162943D01*
X38454Y162903D01*
X38465Y162784D01*
X38468Y162665D01*
X38480Y162626D01*
X38483Y162586D01*
X38524Y162474D01*
X38557Y162360D01*
X38577Y162325D01*
X38591Y162287D01*
X38658Y162188D01*
X38718Y162086D01*
X38758Y162041D01*
X38770Y162024D01*
X38785Y162010D01*
X38825Y161965D01*
X39046Y161744D01*
X39124Y161683D01*
X39196Y161615D01*
X39249Y161586D01*
X39297Y161549D01*
X39388Y161509D01*
X39475Y161462D01*
X39533Y161447D01*
X39589Y161422D01*
X39687Y161407D01*
X39783Y161382D01*
X39883Y161376D01*
X39903Y161373D01*
X39915Y161374D01*
X39943Y161372D01*
X70901Y161372D01*
X70999Y161384D01*
G37*
G36*
X223863Y29747D02*
X223863Y29747D01*
X223972Y29754D01*
X224019Y29769D01*
X224069Y29776D01*
X224221Y29828D01*
X225275Y30265D01*
X226888Y30265D01*
X226986Y30277D01*
X227085Y30280D01*
X227144Y30297D01*
X227204Y30304D01*
X227296Y30341D01*
X227391Y30368D01*
X227443Y30399D01*
X227499Y30421D01*
X227580Y30480D01*
X227665Y30530D01*
X227740Y30596D01*
X227757Y30608D01*
X227765Y30618D01*
X227786Y30636D01*
X242126Y44976D01*
X242187Y45055D01*
X242254Y45127D01*
X242284Y45180D01*
X242321Y45228D01*
X242360Y45319D01*
X242408Y45405D01*
X242423Y45464D01*
X242447Y45520D01*
X242463Y45618D01*
X242487Y45713D01*
X242494Y45813D01*
X242497Y45834D01*
X242496Y45846D01*
X242498Y45874D01*
X242498Y101411D01*
X242485Y101510D01*
X242482Y101609D01*
X242465Y101667D01*
X242458Y101727D01*
X242421Y101819D01*
X242394Y101914D01*
X242363Y101966D01*
X242341Y102023D01*
X242283Y102103D01*
X242232Y102188D01*
X242166Y102263D01*
X242154Y102280D01*
X242145Y102288D01*
X242126Y102309D01*
X240993Y103442D01*
X240123Y105541D01*
X240099Y105584D01*
X240082Y105631D01*
X240020Y105722D01*
X239966Y105817D01*
X239931Y105853D01*
X239903Y105894D01*
X239821Y105967D01*
X239745Y106046D01*
X239702Y106072D01*
X239665Y106104D01*
X239567Y106154D01*
X239473Y106212D01*
X239426Y106226D01*
X239382Y106249D01*
X239274Y106273D01*
X239169Y106305D01*
X239120Y106308D01*
X239071Y106319D01*
X238961Y106315D01*
X238852Y106321D01*
X238803Y106311D01*
X238753Y106309D01*
X238648Y106279D01*
X238540Y106256D01*
X238496Y106234D01*
X238448Y106221D01*
X238354Y106165D01*
X238255Y106117D01*
X238217Y106084D01*
X238174Y106059D01*
X238053Y105953D01*
X224070Y91970D01*
X224010Y91892D01*
X223942Y91820D01*
X223913Y91767D01*
X223876Y91719D01*
X223836Y91628D01*
X223788Y91541D01*
X223773Y91483D01*
X223749Y91427D01*
X223734Y91329D01*
X223709Y91233D01*
X223703Y91133D01*
X223699Y91113D01*
X223701Y91100D01*
X223699Y91072D01*
X223699Y89332D01*
X222925Y87465D01*
X221496Y86036D01*
X220547Y85643D01*
X220504Y85618D01*
X220457Y85601D01*
X220367Y85540D01*
X220271Y85485D01*
X220235Y85451D01*
X220194Y85423D01*
X220122Y85340D01*
X220043Y85264D01*
X220017Y85222D01*
X219984Y85184D01*
X219934Y85086D01*
X219876Y84993D01*
X219862Y84945D01*
X219839Y84901D01*
X219815Y84794D01*
X219783Y84689D01*
X219780Y84639D01*
X219770Y84591D01*
X219773Y84481D01*
X219768Y84371D01*
X219778Y84322D01*
X219779Y84273D01*
X219810Y84168D01*
X219832Y84060D01*
X219854Y84015D01*
X219868Y83967D01*
X219923Y83873D01*
X219972Y83774D01*
X220004Y83736D01*
X220029Y83693D01*
X220136Y83573D01*
X220457Y83251D01*
X222466Y81242D01*
X222466Y31001D01*
X222472Y30951D01*
X222470Y30902D01*
X222492Y30794D01*
X222506Y30685D01*
X222524Y30639D01*
X222534Y30590D01*
X222582Y30492D01*
X222623Y30389D01*
X222652Y30349D01*
X222674Y30305D01*
X222745Y30221D01*
X222810Y30132D01*
X222848Y30100D01*
X222880Y30063D01*
X222970Y29999D01*
X223055Y29929D01*
X223100Y29908D01*
X223140Y29879D01*
X223243Y29840D01*
X223342Y29794D01*
X223391Y29784D01*
X223438Y29767D01*
X223547Y29755D01*
X223655Y29734D01*
X223704Y29737D01*
X223754Y29731D01*
X223863Y29747D01*
G37*
%LPC*%
G36*
X100828Y49173D02*
X100828Y49173D01*
X98736Y50040D01*
X97136Y51640D01*
X96269Y53732D01*
X96269Y55996D01*
X97136Y58088D01*
X98736Y59688D01*
X100828Y60555D01*
X103092Y60555D01*
X105131Y59710D01*
X105145Y59706D01*
X105159Y59699D01*
X105298Y59664D01*
X105438Y59626D01*
X105453Y59626D01*
X105467Y59622D01*
X105611Y59623D01*
X105756Y59621D01*
X105770Y59625D01*
X105785Y59625D01*
X105925Y59661D01*
X106065Y59695D01*
X106078Y59702D01*
X106093Y59706D01*
X106219Y59776D01*
X106346Y59844D01*
X106357Y59854D01*
X106370Y59861D01*
X106475Y59961D01*
X106582Y60058D01*
X106590Y60070D01*
X106600Y60080D01*
X106677Y60203D01*
X106756Y60324D01*
X106761Y60338D01*
X106769Y60350D01*
X106812Y60486D01*
X106813Y60490D01*
X113536Y60490D01*
X113536Y53943D01*
X112730Y54103D01*
X111214Y54731D01*
X109850Y55643D01*
X109818Y55675D01*
X109708Y55760D01*
X109601Y55849D01*
X109582Y55858D01*
X109566Y55870D01*
X109439Y55925D01*
X109313Y55985D01*
X109293Y55988D01*
X109275Y55996D01*
X109137Y56018D01*
X109000Y56044D01*
X108980Y56043D01*
X108960Y56046D01*
X108822Y56033D01*
X108683Y56025D01*
X108664Y56018D01*
X108644Y56016D01*
X108513Y55969D01*
X108381Y55927D01*
X108363Y55916D01*
X108345Y55909D01*
X108230Y55831D01*
X108112Y55756D01*
X108098Y55742D01*
X108081Y55730D01*
X107989Y55626D01*
X107894Y55525D01*
X107884Y55507D01*
X107871Y55492D01*
X107808Y55368D01*
X107740Y55246D01*
X107735Y55227D01*
X107726Y55209D01*
X107696Y55073D01*
X107661Y54938D01*
X107659Y54910D01*
X107656Y54898D01*
X107657Y54878D01*
X107651Y54778D01*
X107651Y53732D01*
X106784Y51640D01*
X105184Y50040D01*
X103092Y49173D01*
X100828Y49173D01*
G37*
%LPD*%
%LPC*%
G36*
X40828Y49173D02*
X40828Y49173D01*
X38736Y50040D01*
X37136Y51640D01*
X36269Y53732D01*
X36269Y54778D01*
X36252Y54916D01*
X36239Y55054D01*
X36232Y55073D01*
X36229Y55093D01*
X36178Y55223D01*
X36131Y55353D01*
X36120Y55370D01*
X36112Y55389D01*
X36031Y55502D01*
X35953Y55616D01*
X35937Y55630D01*
X35926Y55646D01*
X35818Y55735D01*
X35714Y55827D01*
X35696Y55836D01*
X35681Y55849D01*
X35555Y55908D01*
X35431Y55972D01*
X35411Y55976D01*
X35393Y55985D01*
X35257Y56011D01*
X35121Y56041D01*
X35100Y56041D01*
X35081Y56044D01*
X34942Y56036D01*
X34803Y56031D01*
X34783Y56026D01*
X34763Y56025D01*
X34631Y55982D01*
X34497Y55943D01*
X34480Y55933D01*
X34461Y55927D01*
X34343Y55852D01*
X34223Y55781D01*
X34202Y55763D01*
X34192Y55756D01*
X34178Y55741D01*
X34102Y55675D01*
X34070Y55643D01*
X32706Y54731D01*
X31190Y54103D01*
X30384Y53943D01*
X30384Y60490D01*
X37098Y60490D01*
X37099Y60487D01*
X37102Y60472D01*
X37165Y60343D01*
X37226Y60211D01*
X37235Y60200D01*
X37242Y60187D01*
X37335Y60077D01*
X37427Y59965D01*
X37438Y59956D01*
X37448Y59945D01*
X37567Y59861D01*
X37682Y59776D01*
X37696Y59770D01*
X37708Y59762D01*
X37843Y59710D01*
X37977Y59656D01*
X37992Y59654D01*
X38006Y59649D01*
X38150Y59633D01*
X38292Y59613D01*
X38307Y59615D01*
X38322Y59614D01*
X38465Y59634D01*
X38608Y59651D01*
X38622Y59656D01*
X38636Y59658D01*
X38789Y59710D01*
X40828Y60555D01*
X43092Y60555D01*
X45184Y59688D01*
X46784Y58088D01*
X47651Y55996D01*
X47651Y53732D01*
X46784Y51640D01*
X45184Y50040D01*
X43092Y49173D01*
X40828Y49173D01*
G37*
%LPD*%
G36*
X33657Y108132D02*
X33657Y108132D01*
X33795Y108140D01*
X33814Y108147D01*
X33834Y108148D01*
X33966Y108196D01*
X34097Y108238D01*
X34115Y108249D01*
X34134Y108256D01*
X34249Y108334D01*
X34366Y108409D01*
X34380Y108423D01*
X34397Y108435D01*
X34489Y108539D01*
X34584Y108640D01*
X34594Y108658D01*
X34607Y108673D01*
X34671Y108797D01*
X34738Y108919D01*
X34743Y108938D01*
X34752Y108956D01*
X34782Y109092D01*
X34817Y109227D01*
X34819Y109255D01*
X34822Y109267D01*
X34821Y109287D01*
X34827Y109387D01*
X34827Y109985D01*
X35601Y111852D01*
X36607Y112858D01*
X36668Y112936D01*
X36736Y113009D01*
X36765Y113062D01*
X36802Y113110D01*
X36841Y113200D01*
X36889Y113287D01*
X36904Y113346D01*
X36928Y113401D01*
X36944Y113499D01*
X36969Y113595D01*
X36975Y113695D01*
X36978Y113716D01*
X36977Y113728D01*
X36979Y113756D01*
X36979Y124243D01*
X36961Y124381D01*
X36948Y124520D01*
X36942Y124539D01*
X36939Y124559D01*
X36888Y124688D01*
X36841Y124819D01*
X36829Y124836D01*
X36822Y124855D01*
X36740Y124967D01*
X36662Y125082D01*
X36647Y125096D01*
X36635Y125112D01*
X36528Y125201D01*
X36424Y125293D01*
X36406Y125302D01*
X36390Y125315D01*
X36264Y125374D01*
X36141Y125437D01*
X36121Y125442D01*
X36102Y125450D01*
X35966Y125476D01*
X35830Y125507D01*
X35810Y125506D01*
X35790Y125510D01*
X35652Y125501D01*
X35512Y125497D01*
X35493Y125492D01*
X35473Y125490D01*
X35341Y125448D01*
X35207Y125409D01*
X35189Y125398D01*
X35170Y125392D01*
X35053Y125318D01*
X34933Y125247D01*
X34912Y125229D01*
X34901Y125222D01*
X34887Y125207D01*
X34812Y125141D01*
X33388Y123717D01*
X31521Y122943D01*
X29499Y122943D01*
X28669Y123287D01*
X28621Y123301D01*
X28576Y123322D01*
X28468Y123342D01*
X28362Y123371D01*
X28312Y123372D01*
X28263Y123381D01*
X28154Y123375D01*
X28044Y123376D01*
X27996Y123365D01*
X27946Y123362D01*
X27842Y123328D01*
X27735Y123302D01*
X27691Y123279D01*
X27644Y123264D01*
X27551Y123205D01*
X27454Y123153D01*
X27417Y123120D01*
X27375Y123093D01*
X27299Y123013D01*
X27218Y122940D01*
X27191Y122898D01*
X27157Y122862D01*
X27104Y122766D01*
X27044Y122674D01*
X27027Y122627D01*
X27003Y122583D01*
X26976Y122477D01*
X26940Y122373D01*
X26936Y122323D01*
X26924Y122275D01*
X26914Y122115D01*
X26914Y114762D01*
X26926Y114664D01*
X26929Y114565D01*
X26946Y114507D01*
X26954Y114447D01*
X26990Y114355D01*
X27018Y114260D01*
X27048Y114207D01*
X27071Y114151D01*
X27129Y114071D01*
X27179Y113986D01*
X27245Y113910D01*
X27257Y113894D01*
X27267Y113886D01*
X27285Y113865D01*
X32661Y108490D01*
X32770Y108405D01*
X32877Y108316D01*
X32896Y108307D01*
X32912Y108295D01*
X33040Y108239D01*
X33165Y108180D01*
X33185Y108177D01*
X33204Y108169D01*
X33342Y108147D01*
X33478Y108121D01*
X33498Y108122D01*
X33518Y108119D01*
X33657Y108132D01*
G37*
%LPC*%
G36*
X200420Y275098D02*
X200420Y275098D01*
X198553Y275871D01*
X197123Y277301D01*
X196350Y279168D01*
X196350Y281189D01*
X197123Y283057D01*
X198553Y284486D01*
X200420Y285259D01*
X202441Y285259D01*
X204309Y284486D01*
X205738Y283057D01*
X206511Y281189D01*
X206511Y279168D01*
X205738Y277301D01*
X204309Y275871D01*
X202441Y275098D01*
X200420Y275098D01*
G37*
%LPD*%
%LPC*%
G36*
X77455Y281587D02*
X77455Y281587D01*
X75587Y282361D01*
X74158Y283790D01*
X73385Y285657D01*
X73385Y287679D01*
X74158Y289546D01*
X75587Y290975D01*
X77455Y291749D01*
X79476Y291749D01*
X81343Y290975D01*
X82773Y289546D01*
X83546Y287679D01*
X83546Y285657D01*
X82773Y283790D01*
X81343Y282361D01*
X79476Y281587D01*
X77455Y281587D01*
G37*
%LPD*%
%LPC*%
G36*
X30384Y63738D02*
X30384Y63738D01*
X30384Y70285D01*
X31190Y70125D01*
X32706Y69497D01*
X34071Y68585D01*
X35231Y67425D01*
X36143Y66060D01*
X36771Y64544D01*
X36931Y63738D01*
X30384Y63738D01*
G37*
%LPD*%
%LPC*%
G36*
X30384Y25488D02*
X30384Y25488D01*
X30384Y32035D01*
X31190Y31875D01*
X32706Y31247D01*
X34071Y30335D01*
X35231Y29175D01*
X36143Y27810D01*
X36771Y26294D01*
X36931Y25488D01*
X30384Y25488D01*
G37*
%LPD*%
%LPC*%
G36*
X116784Y63738D02*
X116784Y63738D01*
X116784Y70285D01*
X117590Y70125D01*
X119106Y69497D01*
X120471Y68585D01*
X121631Y67425D01*
X122543Y66060D01*
X123171Y64544D01*
X123331Y63738D01*
X116784Y63738D01*
G37*
%LPD*%
%LPC*%
G36*
X116784Y25488D02*
X116784Y25488D01*
X116784Y32035D01*
X117590Y31875D01*
X119106Y31247D01*
X120471Y30335D01*
X121631Y29175D01*
X122543Y27810D01*
X123171Y26294D01*
X123331Y25488D01*
X116784Y25488D01*
G37*
%LPD*%
%LPC*%
G36*
X106989Y63738D02*
X106989Y63738D01*
X107149Y64544D01*
X107777Y66060D01*
X108689Y67425D01*
X109849Y68585D01*
X111214Y69497D01*
X112730Y70125D01*
X113536Y70285D01*
X113536Y63738D01*
X106989Y63738D01*
G37*
%LPD*%
%LPC*%
G36*
X106989Y25488D02*
X106989Y25488D01*
X107149Y26294D01*
X107777Y27810D01*
X108689Y29175D01*
X109849Y30335D01*
X111214Y31247D01*
X112730Y31875D01*
X113536Y32035D01*
X113536Y25488D01*
X106989Y25488D01*
G37*
%LPD*%
%LPC*%
G36*
X116784Y22240D02*
X116784Y22240D01*
X123331Y22240D01*
X123171Y21434D01*
X122543Y19918D01*
X121631Y18553D01*
X120471Y17393D01*
X119106Y16481D01*
X117590Y15853D01*
X116784Y15693D01*
X116784Y22240D01*
G37*
%LPD*%
%LPC*%
G36*
X112730Y15853D02*
X112730Y15853D01*
X111214Y16481D01*
X109849Y17393D01*
X108689Y18553D01*
X107777Y19918D01*
X107149Y21434D01*
X106989Y22240D01*
X113536Y22240D01*
X113536Y15693D01*
X112730Y15853D01*
G37*
%LPD*%
D10*
X28760Y62114D03*
X115160Y62114D03*
X28760Y23864D03*
X115160Y23864D03*
D11*
X152071Y101594D03*
D12*
X226286Y25184D03*
X245300Y106320D03*
D13*
X245292Y44191D02*
X226286Y25184D01*
X245292Y106312D02*
X245300Y106320D01*
X245292Y106312D02*
X245292Y44191D01*
D12*
X169440Y159560D03*
X108894Y269039D03*
X96885Y256372D03*
X43636Y18571D03*
X72220Y12825D03*
X167070Y62405D03*
X228131Y72733D03*
X193082Y21937D03*
X55410Y81115D03*
X28321Y79976D03*
X102977Y45450D03*
X255520Y150428D03*
X67594Y165108D03*
X75944Y144058D03*
X128616Y101456D03*
X63784Y137168D03*
X96965Y269737D03*
X132116Y252184D03*
X107524Y239023D03*
X28532Y246062D03*
X245118Y25169D03*
X151632Y11494D03*
X165991Y105027D03*
X162765Y256103D03*
X108992Y256302D03*
X109654Y110669D03*
X22312Y267263D03*
X32957Y119618D03*
X105585Y90576D03*
X169600Y98100D03*
X121923Y112295D03*
X189623Y39957D03*
X212343Y48582D03*
X152097Y115888D03*
X85078Y269466D03*
X37299Y255702D03*
X269926Y221770D03*
X269988Y256077D03*
X269997Y245395D03*
X269850Y234019D03*
X245372Y272572D03*
X43636Y28571D03*
X22479Y292319D03*
X36780Y311161D03*
X255724Y310725D03*
X268925Y292542D03*
X213007Y300052D03*
X259861Y267913D03*
X99636Y28571D03*
X99636Y18571D03*
X72220Y30825D03*
X269810Y25009D03*
X269993Y72757D03*
X260035Y25016D03*
X114530Y120081D03*
X161928Y111918D03*
X137727Y101579D03*
X142498Y112256D03*
X172380Y91095D03*
X118953Y101240D03*
X182867Y95518D03*
X37256Y263731D03*
X28725Y255587D03*
X49192Y270141D03*
X84832Y256044D03*
X267442Y119087D03*
X238463Y121612D03*
X259944Y256396D03*
X234359Y272778D03*
X222313Y272487D03*
X209756Y266588D03*
X39659Y45450D03*
X162948Y216877D03*
X233367Y145323D03*
X182538Y256467D03*
X209910Y256283D03*
X193105Y256459D03*
X84464Y152070D03*
X122261Y11510D03*
X28755Y236483D03*
X28755Y226904D03*
X66837Y269847D03*
X116240Y177784D03*
X238680Y18480D03*
X218644Y130116D03*
D13*
X223797Y18480D02*
X238680Y18480D01*
X210632Y89124D02*
X210632Y122104D01*
X210632Y89124D02*
X219671Y80085D01*
X219671Y22606D02*
X223797Y18480D01*
X219671Y22606D02*
X219671Y80085D01*
X210632Y122104D02*
X218644Y130116D01*
D12*
X116104Y187720D03*
X215046Y155881D03*
X39908Y108974D03*
X38892Y136914D03*
X37242Y185827D03*
X217021Y115853D03*
X78465Y286668D03*
D13*
X215046Y155881D02*
X215073Y155881D01*
X224994Y145959D01*
X214996Y185041D02*
X214996Y188610D01*
X214996Y185041D02*
X214996Y155930D01*
X215046Y155881D01*
D12*
X190888Y209076D03*
D13*
X105370Y185451D02*
X74432Y154513D01*
X56491Y154513D01*
D12*
X78368Y226170D03*
D13*
X78114Y226170D01*
X37771Y185827D01*
X37242Y185827D01*
X116104Y187720D02*
X118373Y185451D01*
X135337Y185451D01*
D12*
X107723Y225864D03*
D13*
X39774Y136032D02*
X39774Y109108D01*
X39908Y108974D01*
X38892Y136914D02*
X56491Y154513D01*
X38892Y136914D02*
X39774Y136032D01*
X217021Y115853D02*
X224994Y123826D01*
X224994Y145959D01*
D12*
X138444Y204313D03*
D13*
X138652Y204313D01*
D12*
X262496Y174513D03*
D13*
X214996Y188610D02*
X214875Y188731D01*
X190888Y208989D02*
X190888Y209076D01*
X211279Y188599D02*
X214836Y185041D01*
X211279Y188599D02*
X190888Y208989D01*
X118373Y185451D02*
X105370Y185451D01*
X135337Y185451D02*
X138652Y188766D01*
X138652Y194934D01*
X107723Y225864D01*
X138652Y204313D02*
X138652Y194934D01*
X262496Y175408D02*
X262496Y174513D01*
X262496Y175408D02*
X249173Y188731D01*
X214875Y188731D01*
X214836Y185041D02*
X214996Y185041D01*
X214985Y188599D02*
X214996Y188610D01*
X214985Y188599D02*
X211279Y188599D01*
D12*
X201431Y280179D03*
X76230Y103894D03*
X95544Y135010D03*
D13*
X95544Y134999D01*
X81310Y120765D01*
X81310Y108974D02*
X76230Y103894D01*
X81310Y108974D02*
X81310Y120765D01*
D12*
X116523Y159005D03*
D13*
X110534Y159005D01*
X74960Y123431D01*
D12*
X74960Y114308D03*
D13*
X74960Y123431D01*
D12*
X260580Y106120D03*
X251580Y18620D03*
D13*
X251874Y18914D01*
X251874Y94414D01*
X260580Y103120D01*
X260580Y106120D01*
D12*
X103827Y122672D03*
X71527Y75889D03*
X95920Y93613D03*
D13*
X89438Y93800D02*
X89438Y108398D01*
X103712Y122672D01*
X103827Y122672D01*
X95834Y93700D02*
X95920Y93613D01*
X89438Y93800D02*
X71527Y75889D01*
X95733Y93800D02*
X95920Y93613D01*
X95733Y93800D02*
X89438Y93800D01*
D12*
X105641Y134547D03*
X62770Y75961D03*
D13*
X65177Y78367D02*
X65177Y78519D01*
X65177Y78367D02*
X62770Y75961D01*
X65177Y78519D02*
X85374Y98717D01*
X85374Y115082D01*
X104839Y134547D02*
X105641Y134547D01*
X104839Y134547D02*
X85374Y115082D01*
D12*
X132302Y191911D03*
X35154Y158450D03*
D13*
X35281Y158577D01*
X72584Y158577D01*
X108147Y194140D01*
X130074Y194140D02*
X132302Y191911D01*
X130074Y194140D02*
X108147Y194140D01*
D12*
X71912Y129548D03*
X159624Y120320D03*
D13*
X71921Y129548D02*
X71912Y129548D01*
X119153Y165355D02*
X122873Y161635D01*
X157393Y122552D02*
X159624Y120320D01*
X157393Y122552D02*
X147227Y122552D01*
X122873Y124912D02*
X122873Y161635D01*
X119153Y165355D02*
X107728Y165355D01*
X131331Y116454D02*
X136010Y116454D01*
X131331Y116454D02*
X122873Y124912D01*
X107728Y165355D02*
X71921Y129548D01*
X136758Y116498D02*
X139044Y118784D01*
X136054Y116498D02*
X136010Y116454D01*
X136054Y116498D02*
X136758Y116498D01*
X139044Y118784D02*
X143460Y118784D01*
X147227Y122552D01*
D12*
X36352Y100846D03*
X26742Y207154D03*
D13*
X24119Y204531D01*
X24119Y113079D01*
X36352Y100846D01*
D12*
X139826Y129924D03*
X167442Y279070D03*
D13*
X139826Y144711D02*
X139826Y129924D01*
X139826Y144711D02*
X169636Y174520D01*
X169636Y276876D02*
X167442Y279070D01*
X169636Y276876D02*
X169636Y174520D01*
D12*
X134128Y122848D03*
D13*
X141749Y122848D01*
X146280Y127379D01*
X146280Y145384D01*
X173868Y172972D01*
D12*
X99372Y287771D03*
D13*
X173868Y282430D02*
X173868Y172972D01*
X173868Y282430D02*
X164400Y291897D01*
X103498Y291897D02*
X99372Y287771D01*
X103498Y291897D02*
X164400Y291897D01*
D12*
X218618Y90343D03*
X55148Y137041D03*
X245234Y116000D03*
D13*
X218618Y90470D02*
X218618Y90343D01*
X244148Y116000D02*
X245234Y116000D01*
X244148Y116000D02*
X218618Y90470D01*
D12*
X218629Y7427D03*
D13*
X55148Y110662D02*
X55148Y137041D01*
X55148Y110662D02*
X38982Y94496D01*
D12*
X28129Y97631D03*
D13*
X31263Y94496D01*
X38982Y94496D01*
D12*
X22911Y41431D03*
D13*
X20152Y38672D01*
X20152Y20078D01*
X35150Y5080D01*
X216282Y5080D01*
X218629Y7427D01*
D12*
X180305Y202980D03*
X198000Y57500D03*
D13*
X202130Y61630D01*
X202130Y181068D01*
X180305Y202894D02*
X180305Y202980D01*
X180305Y202894D02*
X202130Y181068D01*
D12*
X222435Y162649D03*
X235014Y175934D03*
D13*
X235014Y175228D01*
X222435Y162649D01*
D12*
X207448Y57367D03*
X208594Y168750D03*
D13*
X206808Y168753D02*
X206190Y58625D01*
X207448Y57367D01*
X206808Y168753D02*
X208594Y168750D01*
D12*
X187353Y82598D03*
X153700Y87387D03*
X157867Y31656D03*
X170928Y32560D03*
D13*
X158771Y32560D01*
X153910Y32560D01*
X157867Y31656D02*
X158771Y32560D01*
X170885Y32603D02*
X170928Y32560D01*
X187353Y49070D02*
X187353Y82598D01*
X187353Y49070D02*
X170885Y32603D01*
D12*
X138392Y66767D03*
X146496Y38910D03*
D13*
X110256Y38910D01*
X35454Y38910D01*
X20025Y54339D01*
X20025Y197391D01*
D12*
X33313Y171410D03*
D13*
X30819Y173903D01*
X146496Y38910D02*
X147560Y38910D01*
X153910Y32560D01*
X138392Y66767D02*
X153700Y82075D01*
X153700Y87387D01*
X138392Y66767D02*
X138114Y66767D01*
X110256Y38910D01*
X29372Y213504D02*
X24112Y213504D01*
X29372Y213504D02*
X33092Y209784D01*
X33092Y204524D01*
X30819Y202251D01*
X30819Y173903D01*
X20055Y209447D02*
X24112Y213504D01*
X20055Y197421D02*
X20025Y197391D01*
X20055Y197421D02*
X20055Y209447D01*
D12*
X37282Y194859D03*
X148261Y247636D03*
D13*
X37282Y195639D02*
X37282Y194859D01*
X37282Y195639D02*
X87271Y245628D01*
X146253Y245628D01*
X148261Y247636D01*
D12*
X180500Y247496D03*
X255465Y192818D03*
D13*
X235322Y192818D01*
X180644Y247496D01*
X180500Y247496D01*
D12*
X84406Y50038D03*
X45660Y79340D03*
D13*
X45720Y79340D01*
X74554Y50506D01*
X83938Y50506D02*
X84406Y50038D01*
X83938Y50506D02*
X74554Y50506D01*
D12*
X59514Y50038D03*
X37416Y75954D03*
D13*
X59514Y53845D02*
X59514Y50038D01*
X59514Y53845D02*
X37416Y75943D01*
X37416Y75954D01*
D12*
X161322Y285249D03*
X156338Y198526D03*
D13*
X156249Y280177D02*
X161322Y285249D01*
X156248Y198616D02*
X156338Y198526D01*
X156248Y198616D02*
X156249Y280177D01*
D12*
X30510Y128024D03*
D13*
X28224Y130161D02*
X28224Y160527D01*
X32527Y164830D01*
X30510Y128024D02*
X30361Y128024D01*
X28224Y130161D01*
X32527Y164830D02*
X35942Y164830D01*
D12*
X138053Y232213D03*
D13*
X103543Y232431D02*
X35942Y164830D01*
X137835Y232431D02*
X138053Y232213D01*
X137835Y232431D02*
X103543Y232431D01*
M02*
