G04 EAGLE Gerber RS-274X export*
G75*
%MOMM*%
%FSLAX34Y34*%
%LPD*%
%IN*%
%IPPOS*%
%AMOC8*
5,1,8,0,0,1.08239X$1,22.5*%
G01*
%ADD10C,0.254000*%


D10*
X14820Y12842D02*
X14900Y11694D01*
X15080Y10558D01*
X15358Y9441D01*
X15733Y8353D01*
X16201Y7302D01*
X16758Y6295D01*
X17402Y5341D01*
X18126Y4447D01*
X18925Y3619D01*
X19794Y2864D01*
X20724Y2187D01*
X21711Y1595D01*
X22745Y1090D01*
X23819Y678D01*
X24925Y360D01*
X26055Y141D01*
X27199Y20D01*
X28350Y0D01*
X256200Y0D01*
X266753Y24D01*
X267838Y237D01*
X268899Y544D01*
X269931Y942D01*
X270923Y1429D01*
X271869Y2000D01*
X272762Y2651D01*
X273595Y3378D01*
X274361Y4175D01*
X275055Y5035D01*
X275671Y5953D01*
X276205Y6921D01*
X276653Y7931D01*
X277011Y8977D01*
X277276Y10050D01*
X277447Y11142D01*
X277521Y12245D01*
X277500Y13350D01*
X277500Y13350D01*
X277500Y245337D01*
X277348Y248824D01*
X276892Y252283D01*
X276137Y255690D01*
X275088Y259018D01*
X273752Y262242D01*
X272141Y265337D01*
X270266Y268280D01*
X268142Y271049D01*
X265784Y273622D01*
X263212Y275979D01*
X260443Y278103D01*
X257500Y279978D01*
X254405Y281590D01*
X251181Y282925D01*
X247853Y283974D01*
X244446Y284730D01*
X240986Y285185D01*
X237500Y285337D01*
X210919Y285337D01*
X70984Y285214D01*
X54818Y285213D01*
X51322Y285050D01*
X47854Y284583D01*
X44439Y283815D01*
X41105Y282753D01*
X37875Y281405D01*
X34776Y279780D01*
X31830Y277891D01*
X29060Y275752D01*
X26487Y273381D01*
X24130Y270794D01*
X22007Y268011D01*
X20136Y265054D01*
X18529Y261945D01*
X17199Y258708D01*
X16156Y255368D01*
X15409Y251949D01*
X14962Y248478D01*
X14820Y245213D01*
X14820Y12842D01*
X97560Y54864D02*
X97572Y54589D01*
X97608Y54317D01*
X97667Y54049D01*
X97750Y53787D01*
X97855Y53533D01*
X97982Y53289D01*
X98130Y53057D01*
X98297Y52839D01*
X98483Y52637D01*
X98685Y52451D01*
X98903Y52284D01*
X99135Y52136D01*
X99379Y52009D01*
X99633Y51904D01*
X99895Y51821D01*
X100163Y51762D01*
X100435Y51726D01*
X100710Y51714D01*
X103210Y51714D01*
X103485Y51726D01*
X103757Y51762D01*
X104025Y51821D01*
X104287Y51904D01*
X104541Y52009D01*
X104785Y52136D01*
X105017Y52284D01*
X105235Y52451D01*
X105437Y52637D01*
X105623Y52839D01*
X105790Y53057D01*
X105938Y53289D01*
X106065Y53533D01*
X106170Y53787D01*
X106253Y54049D01*
X106312Y54317D01*
X106348Y54589D01*
X106360Y54864D01*
X106348Y55139D01*
X106312Y55411D01*
X106253Y55679D01*
X106170Y55941D01*
X106065Y56195D01*
X105938Y56439D01*
X105790Y56671D01*
X105623Y56889D01*
X105437Y57091D01*
X105235Y57277D01*
X105017Y57444D01*
X104785Y57592D01*
X104541Y57719D01*
X104287Y57824D01*
X104025Y57907D01*
X103757Y57966D01*
X103485Y58002D01*
X103210Y58014D01*
X100710Y58014D01*
X100435Y58002D01*
X100163Y57966D01*
X99895Y57907D01*
X99633Y57824D01*
X99379Y57719D01*
X99135Y57592D01*
X98903Y57444D01*
X98685Y57277D01*
X98483Y57091D01*
X98297Y56889D01*
X98130Y56671D01*
X97982Y56439D01*
X97855Y56195D01*
X97750Y55941D01*
X97667Y55679D01*
X97608Y55411D01*
X97572Y55139D01*
X97560Y54864D01*
X25510Y17364D02*
X25522Y17081D01*
X25559Y16800D01*
X25621Y16523D01*
X25706Y16252D01*
X25815Y15991D01*
X25945Y15739D01*
X26098Y15500D01*
X26270Y15275D01*
X26462Y15066D01*
X26671Y14874D01*
X26896Y14702D01*
X27135Y14549D01*
X27387Y14419D01*
X27648Y14310D01*
X27919Y14225D01*
X28196Y14163D01*
X28477Y14126D01*
X28760Y14114D01*
X29043Y14126D01*
X29324Y14163D01*
X29601Y14225D01*
X29872Y14310D01*
X30134Y14419D01*
X30385Y14549D01*
X30624Y14702D01*
X30849Y14874D01*
X31058Y15066D01*
X31250Y15275D01*
X31422Y15500D01*
X31575Y15739D01*
X31706Y15991D01*
X31814Y16252D01*
X31899Y16523D01*
X31961Y16800D01*
X31998Y17081D01*
X32010Y17364D01*
X32010Y30364D01*
X31998Y30647D01*
X31961Y30928D01*
X31899Y31205D01*
X31814Y31476D01*
X31706Y31738D01*
X31575Y31989D01*
X31422Y32228D01*
X31250Y32453D01*
X31058Y32662D01*
X30849Y32854D01*
X30624Y33026D01*
X30385Y33179D01*
X30134Y33310D01*
X29872Y33418D01*
X29601Y33503D01*
X29324Y33565D01*
X29043Y33602D01*
X28760Y33614D01*
X28477Y33602D01*
X28196Y33565D01*
X27919Y33503D01*
X27648Y33418D01*
X27387Y33310D01*
X27135Y33179D01*
X26896Y33026D01*
X26671Y32854D01*
X26462Y32662D01*
X26270Y32453D01*
X26098Y32228D01*
X25945Y31989D01*
X25815Y31738D01*
X25706Y31476D01*
X25621Y31205D01*
X25559Y30928D01*
X25522Y30647D01*
X25510Y30364D01*
X25510Y17364D01*
X111910Y17364D02*
X111922Y17081D01*
X111959Y16800D01*
X112021Y16523D01*
X112106Y16252D01*
X112215Y15991D01*
X112345Y15739D01*
X112498Y15500D01*
X112670Y15275D01*
X112862Y15066D01*
X113071Y14874D01*
X113296Y14702D01*
X113535Y14549D01*
X113787Y14419D01*
X114048Y14310D01*
X114319Y14225D01*
X114596Y14163D01*
X114877Y14126D01*
X115160Y14114D01*
X115443Y14126D01*
X115724Y14163D01*
X116001Y14225D01*
X116272Y14310D01*
X116534Y14419D01*
X116785Y14549D01*
X117024Y14702D01*
X117249Y14874D01*
X117458Y15066D01*
X117650Y15275D01*
X117822Y15500D01*
X117975Y15739D01*
X118106Y15991D01*
X118214Y16252D01*
X118299Y16523D01*
X118361Y16800D01*
X118398Y17081D01*
X118410Y17364D01*
X118410Y30364D01*
X118398Y30647D01*
X118361Y30928D01*
X118299Y31205D01*
X118214Y31476D01*
X118106Y31738D01*
X117975Y31989D01*
X117822Y32228D01*
X117650Y32453D01*
X117458Y32662D01*
X117249Y32854D01*
X117024Y33026D01*
X116785Y33179D01*
X116534Y33310D01*
X116272Y33418D01*
X116001Y33503D01*
X115724Y33565D01*
X115443Y33602D01*
X115160Y33614D01*
X114877Y33602D01*
X114596Y33565D01*
X114319Y33503D01*
X114048Y33418D01*
X113787Y33310D01*
X113535Y33179D01*
X113296Y33026D01*
X113071Y32854D01*
X112862Y32662D01*
X112670Y32453D01*
X112498Y32228D01*
X112345Y31989D01*
X112215Y31738D01*
X112106Y31476D01*
X112021Y31205D01*
X111959Y30928D01*
X111922Y30647D01*
X111910Y30364D01*
X111910Y17364D01*
X25510Y57114D02*
X25522Y56831D01*
X25559Y56550D01*
X25621Y56273D01*
X25706Y56002D01*
X25815Y55741D01*
X25945Y55489D01*
X26098Y55250D01*
X26270Y55025D01*
X26462Y54816D01*
X26671Y54624D01*
X26896Y54452D01*
X27135Y54299D01*
X27387Y54169D01*
X27648Y54060D01*
X27919Y53975D01*
X28196Y53913D01*
X28477Y53876D01*
X28760Y53864D01*
X29043Y53876D01*
X29324Y53913D01*
X29601Y53975D01*
X29872Y54060D01*
X30134Y54169D01*
X30385Y54299D01*
X30624Y54452D01*
X30849Y54624D01*
X31058Y54816D01*
X31250Y55025D01*
X31422Y55250D01*
X31575Y55489D01*
X31706Y55741D01*
X31814Y56002D01*
X31899Y56273D01*
X31961Y56550D01*
X31998Y56831D01*
X32010Y57114D01*
X32010Y67114D01*
X31998Y67397D01*
X31961Y67678D01*
X31899Y67955D01*
X31814Y68226D01*
X31706Y68488D01*
X31575Y68739D01*
X31422Y68978D01*
X31250Y69203D01*
X31058Y69412D01*
X30849Y69604D01*
X30624Y69776D01*
X30385Y69929D01*
X30134Y70060D01*
X29872Y70168D01*
X29601Y70253D01*
X29324Y70315D01*
X29043Y70352D01*
X28760Y70364D01*
X28477Y70352D01*
X28196Y70315D01*
X27919Y70253D01*
X27648Y70168D01*
X27387Y70060D01*
X27135Y69929D01*
X26896Y69776D01*
X26671Y69604D01*
X26462Y69412D01*
X26270Y69203D01*
X26098Y68978D01*
X25945Y68739D01*
X25815Y68488D01*
X25706Y68226D01*
X25621Y67955D01*
X25559Y67678D01*
X25522Y67397D01*
X25510Y67114D01*
X25510Y57114D01*
X111910Y57114D02*
X111922Y56831D01*
X111959Y56550D01*
X112021Y56273D01*
X112106Y56002D01*
X112215Y55741D01*
X112345Y55489D01*
X112498Y55250D01*
X112670Y55025D01*
X112862Y54816D01*
X113071Y54624D01*
X113296Y54452D01*
X113535Y54299D01*
X113787Y54169D01*
X114048Y54060D01*
X114319Y53975D01*
X114596Y53913D01*
X114877Y53876D01*
X115160Y53864D01*
X115443Y53876D01*
X115724Y53913D01*
X116001Y53975D01*
X116272Y54060D01*
X116534Y54169D01*
X116785Y54299D01*
X117024Y54452D01*
X117249Y54624D01*
X117458Y54816D01*
X117650Y55025D01*
X117822Y55250D01*
X117975Y55489D01*
X118106Y55741D01*
X118214Y56002D01*
X118299Y56273D01*
X118361Y56550D01*
X118398Y56831D01*
X118410Y57114D01*
X118410Y67114D01*
X118398Y67397D01*
X118361Y67678D01*
X118299Y67955D01*
X118214Y68226D01*
X118106Y68488D01*
X117975Y68739D01*
X117822Y68978D01*
X117650Y69203D01*
X117458Y69412D01*
X117249Y69604D01*
X117024Y69776D01*
X116785Y69929D01*
X116534Y70060D01*
X116272Y70168D01*
X116001Y70253D01*
X115724Y70315D01*
X115443Y70352D01*
X115160Y70364D01*
X114877Y70352D01*
X114596Y70315D01*
X114319Y70253D01*
X114048Y70168D01*
X113787Y70060D01*
X113535Y69929D01*
X113296Y69776D01*
X113071Y69604D01*
X112862Y69412D01*
X112670Y69203D01*
X112498Y68978D01*
X112345Y68739D01*
X112215Y68488D01*
X112106Y68226D01*
X112021Y67955D01*
X111959Y67678D01*
X111922Y67397D01*
X111910Y67114D01*
X111910Y57114D01*
X104960Y54628D02*
X104886Y54162D01*
X104740Y53712D01*
X104526Y53292D01*
X104248Y52910D01*
X103914Y52576D01*
X103532Y52298D01*
X103112Y52084D01*
X102663Y51938D01*
X102196Y51864D01*
X101724Y51864D01*
X101258Y51938D01*
X100808Y52084D01*
X100388Y52298D01*
X100006Y52576D01*
X99672Y52910D01*
X99394Y53292D01*
X99180Y53712D01*
X99034Y54162D01*
X98960Y54628D01*
X98960Y55100D01*
X99034Y55567D01*
X99180Y56016D01*
X99394Y56436D01*
X99672Y56818D01*
X100006Y57152D01*
X100388Y57430D01*
X100808Y57644D01*
X101258Y57790D01*
X101724Y57864D01*
X102196Y57864D01*
X102663Y57790D01*
X103112Y57644D01*
X103532Y57430D01*
X103914Y57152D01*
X104248Y56818D01*
X104526Y56436D01*
X104740Y56016D01*
X104886Y55567D01*
X104960Y55100D01*
X104960Y54628D01*
X105110Y54616D02*
X105032Y54126D01*
X104879Y53655D01*
X104654Y53213D01*
X104363Y52812D01*
X104012Y52461D01*
X103611Y52170D01*
X103169Y51945D01*
X102698Y51792D01*
X102208Y51714D01*
X101712Y51714D01*
X101222Y51792D01*
X100751Y51945D01*
X100309Y52170D01*
X99908Y52461D01*
X99557Y52812D01*
X99266Y53213D01*
X99041Y53655D01*
X98888Y54126D01*
X98810Y54616D01*
X98810Y55112D01*
X98888Y55602D01*
X99041Y56073D01*
X99266Y56515D01*
X99557Y56916D01*
X99908Y57267D01*
X100309Y57558D01*
X100751Y57783D01*
X101222Y57936D01*
X101712Y58014D01*
X102208Y58014D01*
X102698Y57936D01*
X103169Y57783D01*
X103611Y57558D01*
X104012Y57267D01*
X104363Y56916D01*
X104654Y56515D01*
X104879Y56073D01*
X105032Y55602D01*
X105110Y55112D01*
X105110Y54616D01*
X45110Y54616D02*
X45032Y54126D01*
X44879Y53655D01*
X44654Y53213D01*
X44363Y52812D01*
X44012Y52461D01*
X43611Y52170D01*
X43169Y51945D01*
X42698Y51792D01*
X42208Y51714D01*
X41712Y51714D01*
X41222Y51792D01*
X40751Y51945D01*
X40309Y52170D01*
X39908Y52461D01*
X39557Y52812D01*
X39266Y53213D01*
X39041Y53655D01*
X38888Y54126D01*
X38810Y54616D01*
X38810Y55112D01*
X38888Y55602D01*
X39041Y56073D01*
X39266Y56515D01*
X39557Y56916D01*
X39908Y57267D01*
X40309Y57558D01*
X40751Y57783D01*
X41222Y57936D01*
X41712Y58014D01*
X42208Y58014D01*
X42698Y57936D01*
X43169Y57783D01*
X43611Y57558D01*
X44012Y57267D01*
X44363Y56916D01*
X44654Y56515D01*
X44879Y56073D01*
X45032Y55602D01*
X45110Y55112D01*
X45110Y54616D01*
M02*
