G04 EAGLE Gerber RS-274X export*
G75*
%MOMM*%
%FSLAX34Y34*%
%LPD*%
%INSilkscreen Bottom*%
%IPPOS*%
%AMOC8*
5,1,8,0,0,1.08239X$1,22.5*%
G01*
%ADD10C,0.101600*%
%ADD11C,0.050800*%
%ADD12C,0.100000*%


D10*
X246840Y282190D02*
X248789Y284139D01*
X252687Y284139D01*
X254636Y282190D01*
X254636Y280241D01*
X252687Y278292D01*
X248789Y278292D01*
X246840Y276343D01*
X246840Y274394D01*
X248789Y272445D01*
X252687Y272445D01*
X254636Y274394D01*
X242942Y272445D02*
X242942Y280241D01*
X237095Y280241D01*
X235146Y278292D01*
X235146Y272445D01*
X229299Y280241D02*
X225401Y280241D01*
X223452Y278292D01*
X223452Y272445D01*
X229299Y272445D01*
X231248Y274394D01*
X229299Y276343D01*
X223452Y276343D01*
X219554Y280241D02*
X219554Y268547D01*
X219554Y280241D02*
X213707Y280241D01*
X211758Y278292D01*
X211758Y274394D01*
X213707Y272445D01*
X219554Y272445D01*
X207860Y268547D02*
X207860Y280241D01*
X202013Y280241D01*
X200064Y278292D01*
X200064Y274394D01*
X202013Y272445D01*
X207860Y272445D01*
X194217Y272445D02*
X190319Y272445D01*
X194217Y272445D02*
X196166Y274394D01*
X196166Y278292D01*
X194217Y280241D01*
X190319Y280241D01*
X188370Y278292D01*
X188370Y276343D01*
X196166Y276343D01*
X184472Y272445D02*
X184472Y280241D01*
X184472Y276343D02*
X180574Y280241D01*
X178625Y280241D01*
X168880Y284139D02*
X166931Y282190D01*
X168880Y284139D02*
X172778Y284139D01*
X174727Y282190D01*
X174727Y274394D01*
X172778Y272445D01*
X168880Y272445D01*
X166931Y274394D01*
X166931Y278292D01*
X170829Y278292D01*
X163033Y272445D02*
X163033Y284139D01*
X157186Y284139D01*
X155237Y282190D01*
X155237Y278292D01*
X157186Y276343D01*
X163033Y276343D01*
X145492Y284139D02*
X143543Y282190D01*
X145492Y284139D02*
X149390Y284139D01*
X151339Y282190D01*
X151339Y280241D01*
X149390Y278292D01*
X145492Y278292D01*
X143543Y276343D01*
X143543Y274394D01*
X145492Y272445D01*
X149390Y272445D01*
X151339Y274394D01*
X130136Y276437D02*
X130136Y284233D01*
X130136Y276437D02*
X126238Y272539D01*
X122340Y276437D01*
X122340Y284233D01*
X118442Y272539D02*
X110646Y272539D01*
X118442Y272539D02*
X110646Y280335D01*
X110646Y282284D01*
X112595Y284233D01*
X116493Y284233D01*
X118442Y282284D01*
X106748Y274488D02*
X106748Y272539D01*
X106748Y274488D02*
X104799Y274488D01*
X104799Y272539D01*
X106748Y272539D01*
X100901Y272539D02*
X93105Y272539D01*
X100901Y272539D02*
X93105Y280335D01*
X93105Y282284D01*
X95054Y284233D01*
X98952Y284233D01*
X100901Y282284D01*
X89207Y274488D02*
X89207Y272539D01*
X89207Y274488D02*
X87258Y274488D01*
X87258Y272539D01*
X89207Y272539D01*
X83360Y274488D02*
X83360Y282284D01*
X81411Y284233D01*
X77513Y284233D01*
X75564Y282284D01*
X75564Y274488D01*
X77513Y272539D01*
X81411Y272539D01*
X83360Y274488D01*
X75564Y282284D01*
D11*
X111472Y293437D02*
X112404Y292505D01*
X112404Y290641D01*
X111472Y289709D01*
X110540Y289709D01*
X109608Y290641D01*
X109608Y292505D01*
X108676Y293437D01*
X107743Y293437D01*
X106811Y292505D01*
X106811Y290641D01*
X107743Y289709D01*
X106811Y295322D02*
X112404Y295322D01*
X108676Y297186D02*
X106811Y295322D01*
X108676Y297186D02*
X106811Y299050D01*
X112404Y299050D01*
X112404Y300935D02*
X106811Y300935D01*
X106811Y303731D01*
X107743Y304664D01*
X111472Y304664D01*
X112404Y303731D01*
X112404Y300935D01*
X106811Y306548D02*
X106811Y308412D01*
X106811Y307480D02*
X112404Y307480D01*
X112404Y306548D02*
X112404Y308412D01*
X112404Y311222D02*
X112404Y313087D01*
X112404Y311222D02*
X111472Y310290D01*
X107743Y310290D01*
X106811Y311222D01*
X106811Y313087D01*
X107743Y314019D01*
X111472Y314019D01*
X112404Y313087D01*
X138072Y291566D02*
X139004Y290634D01*
X139004Y288770D01*
X138072Y287838D01*
X137140Y287838D01*
X136208Y288770D01*
X136208Y290634D01*
X135276Y291566D01*
X134343Y291566D01*
X133411Y290634D01*
X133411Y288770D01*
X134343Y287838D01*
X133411Y293451D02*
X139004Y293451D01*
X135276Y295315D02*
X133411Y293451D01*
X135276Y295315D02*
X133411Y297179D01*
X139004Y297179D01*
X139004Y301860D02*
X138072Y302793D01*
X139004Y301860D02*
X139004Y299996D01*
X138072Y299064D01*
X134343Y299064D01*
X133411Y299996D01*
X133411Y301860D01*
X134343Y302793D01*
X133411Y304677D02*
X139004Y304677D01*
X133411Y304677D02*
X133411Y308406D01*
X133411Y310290D02*
X139004Y310290D01*
X135276Y310290D02*
X139004Y314019D01*
X136208Y311222D02*
X133411Y314019D01*
X158011Y287838D02*
X163604Y287838D01*
X163604Y290634D01*
X162672Y291566D01*
X160808Y291566D01*
X159876Y290634D01*
X159876Y287838D01*
X159876Y289702D02*
X158011Y291566D01*
X163604Y293451D02*
X163604Y297179D01*
X163604Y293451D02*
X158011Y293451D01*
X158011Y297179D01*
X160808Y295315D02*
X160808Y293451D01*
X163604Y301860D02*
X162672Y302793D01*
X163604Y301860D02*
X163604Y299996D01*
X162672Y299064D01*
X161740Y299064D01*
X160808Y299996D01*
X160808Y301860D01*
X159876Y302793D01*
X158943Y302793D01*
X158011Y301860D01*
X158011Y299996D01*
X158943Y299064D01*
X163604Y304677D02*
X163604Y308406D01*
X163604Y304677D02*
X158011Y304677D01*
X158011Y308406D01*
X160808Y306541D02*
X160808Y304677D01*
X163604Y312154D02*
X158011Y312154D01*
X163604Y310290D02*
X163604Y314019D01*
X87330Y298870D02*
X83601Y298870D01*
X81737Y300734D01*
X83601Y302598D01*
X87330Y302598D01*
X87330Y304483D02*
X81737Y304483D01*
X81737Y307279D01*
X82669Y308211D01*
X86398Y308211D01*
X87330Y307279D01*
X87330Y304483D01*
X87330Y310096D02*
X81737Y310096D01*
X81737Y312892D01*
X82669Y313824D01*
X86398Y313824D01*
X87330Y312892D01*
X87330Y310096D01*
X187272Y302793D02*
X188204Y301860D01*
X188204Y299996D01*
X187272Y299064D01*
X183543Y299064D01*
X182611Y299996D01*
X182611Y301860D01*
X183543Y302793D01*
X185408Y302793D01*
X185408Y300928D01*
X188204Y304677D02*
X182611Y304677D01*
X182611Y308406D02*
X188204Y304677D01*
X188204Y308406D02*
X182611Y308406D01*
X182611Y310290D02*
X188204Y310290D01*
X182611Y310290D02*
X182611Y313087D01*
X183543Y314019D01*
X187272Y314019D01*
X188204Y313087D01*
X188204Y310290D01*
D12*
X277571Y252094D02*
X26571Y252094D01*
X26571Y1094D01*
X277571Y1094D01*
X277571Y252094D01*
M02*
