G04 EAGLE Gerber RS-274X export*
G75*
%MOMM*%
%FSLAX34Y34*%
%LPD*%
%INSolderpaste Top*%
%IPPOS*%
%AMOC8*
5,1,8,0,0,1.08239X$1,22.5*%
G01*
%ADD10R,0.600000X0.500000*%
%ADD11R,0.600000X0.900000*%
%ADD12R,0.500000X0.600000*%
%ADD13R,1.000000X1.800000*%
%ADD14R,0.700000X0.250000*%
%ADD15R,0.250000X0.700000*%
%ADD16R,1.300000X1.300000*%
%ADD17R,1.016000X0.711200*%
%ADD18R,0.609600X0.685800*%
%ADD19R,1.580000X1.580000*%
%ADD20C,0.067500*%
%ADD21R,0.800000X0.600000*%
%ADD22R,0.450000X0.950000*%
%ADD23R,4.350000X3.450000*%
%ADD24C,0.300000*%
%ADD25R,0.520000X1.000000*%
%ADD26R,0.270000X1.000000*%
%ADD27R,1.000000X2.000000*%
%ADD28R,0.450000X0.600000*%
%ADD29R,0.890000X0.940000*%
%ADD30R,1.080000X1.050000*%
%ADD31R,0.632000X1.012000*%
%ADD32R,0.660000X0.320000*%
%ADD33R,2.000000X0.650000*%
%ADD34R,3.180000X2.030000*%
%ADD35R,3.170000X3.170000*%


D10*
X217544Y98106D03*
X217544Y108106D03*
D11*
X107994Y173301D03*
X92994Y173301D03*
D10*
X207400Y106995D03*
X207400Y96995D03*
D12*
X153137Y212039D03*
X143137Y212039D03*
X222792Y153458D03*
X232792Y153458D03*
D11*
X107978Y187764D03*
X92978Y187764D03*
D10*
X197240Y106995D03*
X197240Y96995D03*
X125794Y178347D03*
X125794Y168347D03*
D11*
X108164Y158987D03*
X93164Y158987D03*
X108079Y144759D03*
X93079Y144759D03*
D12*
X241035Y142173D03*
X251035Y142173D03*
X271199Y142133D03*
X261199Y142133D03*
D13*
X268486Y157437D03*
X243486Y157437D03*
D14*
X199440Y136810D03*
X199440Y143310D03*
X199440Y149810D03*
X199440Y156310D03*
X199440Y162810D03*
X199440Y169310D03*
X199440Y175810D03*
X199440Y182310D03*
D15*
X192190Y189560D03*
X185690Y189560D03*
X179190Y189560D03*
X172690Y189560D03*
X166190Y189560D03*
X159690Y189560D03*
X153190Y189560D03*
X146690Y189560D03*
D14*
X139440Y182310D03*
X139440Y175810D03*
X139440Y169310D03*
X139440Y162810D03*
X139440Y156310D03*
X139440Y149810D03*
X139440Y143310D03*
X139440Y136810D03*
D15*
X146690Y129560D03*
X153190Y129560D03*
X159690Y129560D03*
X166190Y129560D03*
X172690Y129560D03*
X179190Y129560D03*
X185690Y129560D03*
X192190Y129560D03*
D16*
X178440Y150560D03*
X178440Y168560D03*
X160440Y168560D03*
X160440Y150560D03*
D17*
X105973Y100467D03*
D18*
X88955Y100467D03*
X88955Y80147D03*
X107751Y80147D03*
D12*
X207472Y40953D03*
X197472Y40953D03*
D19*
X167070Y62405D03*
D20*
X178557Y77792D02*
X178557Y85718D01*
X180583Y85718D01*
X180583Y77792D01*
X178557Y77792D01*
X178557Y78433D02*
X180583Y78433D01*
X180583Y79074D02*
X178557Y79074D01*
X178557Y79715D02*
X180583Y79715D01*
X180583Y80356D02*
X178557Y80356D01*
X178557Y80997D02*
X180583Y80997D01*
X180583Y81638D02*
X178557Y81638D01*
X178557Y82279D02*
X180583Y82279D01*
X180583Y82920D02*
X178557Y82920D01*
X178557Y83561D02*
X180583Y83561D01*
X180583Y84202D02*
X178557Y84202D01*
X178557Y84843D02*
X180583Y84843D01*
X180583Y85484D02*
X178557Y85484D01*
X173557Y85718D02*
X173557Y77792D01*
X173557Y85718D02*
X175583Y85718D01*
X175583Y77792D01*
X173557Y77792D01*
X173557Y78433D02*
X175583Y78433D01*
X175583Y79074D02*
X173557Y79074D01*
X173557Y79715D02*
X175583Y79715D01*
X175583Y80356D02*
X173557Y80356D01*
X173557Y80997D02*
X175583Y80997D01*
X175583Y81638D02*
X173557Y81638D01*
X173557Y82279D02*
X175583Y82279D01*
X175583Y82920D02*
X173557Y82920D01*
X173557Y83561D02*
X175583Y83561D01*
X175583Y84202D02*
X173557Y84202D01*
X173557Y84843D02*
X175583Y84843D01*
X175583Y85484D02*
X173557Y85484D01*
X168557Y85718D02*
X168557Y77792D01*
X168557Y85718D02*
X170583Y85718D01*
X170583Y77792D01*
X168557Y77792D01*
X168557Y78433D02*
X170583Y78433D01*
X170583Y79074D02*
X168557Y79074D01*
X168557Y79715D02*
X170583Y79715D01*
X170583Y80356D02*
X168557Y80356D01*
X168557Y80997D02*
X170583Y80997D01*
X170583Y81638D02*
X168557Y81638D01*
X168557Y82279D02*
X170583Y82279D01*
X170583Y82920D02*
X168557Y82920D01*
X168557Y83561D02*
X170583Y83561D01*
X170583Y84202D02*
X168557Y84202D01*
X168557Y84843D02*
X170583Y84843D01*
X170583Y85484D02*
X168557Y85484D01*
X163557Y85718D02*
X163557Y77792D01*
X163557Y85718D02*
X165583Y85718D01*
X165583Y77792D01*
X163557Y77792D01*
X163557Y78433D02*
X165583Y78433D01*
X165583Y79074D02*
X163557Y79074D01*
X163557Y79715D02*
X165583Y79715D01*
X165583Y80356D02*
X163557Y80356D01*
X163557Y80997D02*
X165583Y80997D01*
X165583Y81638D02*
X163557Y81638D01*
X163557Y82279D02*
X165583Y82279D01*
X165583Y82920D02*
X163557Y82920D01*
X163557Y83561D02*
X165583Y83561D01*
X165583Y84202D02*
X163557Y84202D01*
X163557Y84843D02*
X165583Y84843D01*
X165583Y85484D02*
X163557Y85484D01*
X158557Y85718D02*
X158557Y77792D01*
X158557Y85718D02*
X160583Y85718D01*
X160583Y77792D01*
X158557Y77792D01*
X158557Y78433D02*
X160583Y78433D01*
X160583Y79074D02*
X158557Y79074D01*
X158557Y79715D02*
X160583Y79715D01*
X160583Y80356D02*
X158557Y80356D01*
X158557Y80997D02*
X160583Y80997D01*
X160583Y81638D02*
X158557Y81638D01*
X158557Y82279D02*
X160583Y82279D01*
X160583Y82920D02*
X158557Y82920D01*
X158557Y83561D02*
X160583Y83561D01*
X160583Y84202D02*
X158557Y84202D01*
X158557Y84843D02*
X160583Y84843D01*
X160583Y85484D02*
X158557Y85484D01*
X153557Y85718D02*
X153557Y77792D01*
X153557Y85718D02*
X155583Y85718D01*
X155583Y77792D01*
X153557Y77792D01*
X153557Y78433D02*
X155583Y78433D01*
X155583Y79074D02*
X153557Y79074D01*
X153557Y79715D02*
X155583Y79715D01*
X155583Y80356D02*
X153557Y80356D01*
X153557Y80997D02*
X155583Y80997D01*
X155583Y81638D02*
X153557Y81638D01*
X153557Y82279D02*
X155583Y82279D01*
X155583Y82920D02*
X153557Y82920D01*
X153557Y83561D02*
X155583Y83561D01*
X155583Y84202D02*
X153557Y84202D01*
X153557Y84843D02*
X155583Y84843D01*
X155583Y85484D02*
X153557Y85484D01*
X151683Y73892D02*
X143757Y73892D01*
X143757Y75918D01*
X151683Y75918D01*
X151683Y73892D01*
X151683Y74533D02*
X143757Y74533D01*
X143757Y75174D02*
X151683Y75174D01*
X151683Y75815D02*
X143757Y75815D01*
X143757Y68892D02*
X151683Y68892D01*
X143757Y68892D02*
X143757Y70918D01*
X151683Y70918D01*
X151683Y68892D01*
X151683Y69533D02*
X143757Y69533D01*
X143757Y70174D02*
X151683Y70174D01*
X151683Y70815D02*
X143757Y70815D01*
X143757Y63892D02*
X151683Y63892D01*
X143757Y63892D02*
X143757Y65918D01*
X151683Y65918D01*
X151683Y63892D01*
X151683Y64533D02*
X143757Y64533D01*
X143757Y65174D02*
X151683Y65174D01*
X151683Y65815D02*
X143757Y65815D01*
X143757Y58892D02*
X151683Y58892D01*
X143757Y58892D02*
X143757Y60918D01*
X151683Y60918D01*
X151683Y58892D01*
X151683Y59533D02*
X143757Y59533D01*
X143757Y60174D02*
X151683Y60174D01*
X151683Y60815D02*
X143757Y60815D01*
X143757Y53892D02*
X151683Y53892D01*
X143757Y53892D02*
X143757Y55918D01*
X151683Y55918D01*
X151683Y53892D01*
X151683Y54533D02*
X143757Y54533D01*
X143757Y55174D02*
X151683Y55174D01*
X151683Y55815D02*
X143757Y55815D01*
X143757Y48892D02*
X151683Y48892D01*
X143757Y48892D02*
X143757Y50918D01*
X151683Y50918D01*
X151683Y48892D01*
X151683Y49533D02*
X143757Y49533D01*
X143757Y50174D02*
X151683Y50174D01*
X151683Y50815D02*
X143757Y50815D01*
X153557Y47018D02*
X153557Y39092D01*
X153557Y47018D02*
X155583Y47018D01*
X155583Y39092D01*
X153557Y39092D01*
X153557Y39733D02*
X155583Y39733D01*
X155583Y40374D02*
X153557Y40374D01*
X153557Y41015D02*
X155583Y41015D01*
X155583Y41656D02*
X153557Y41656D01*
X153557Y42297D02*
X155583Y42297D01*
X155583Y42938D02*
X153557Y42938D01*
X153557Y43579D02*
X155583Y43579D01*
X155583Y44220D02*
X153557Y44220D01*
X153557Y44861D02*
X155583Y44861D01*
X155583Y45502D02*
X153557Y45502D01*
X153557Y46143D02*
X155583Y46143D01*
X155583Y46784D02*
X153557Y46784D01*
X158557Y47018D02*
X158557Y39092D01*
X158557Y47018D02*
X160583Y47018D01*
X160583Y39092D01*
X158557Y39092D01*
X158557Y39733D02*
X160583Y39733D01*
X160583Y40374D02*
X158557Y40374D01*
X158557Y41015D02*
X160583Y41015D01*
X160583Y41656D02*
X158557Y41656D01*
X158557Y42297D02*
X160583Y42297D01*
X160583Y42938D02*
X158557Y42938D01*
X158557Y43579D02*
X160583Y43579D01*
X160583Y44220D02*
X158557Y44220D01*
X158557Y44861D02*
X160583Y44861D01*
X160583Y45502D02*
X158557Y45502D01*
X158557Y46143D02*
X160583Y46143D01*
X160583Y46784D02*
X158557Y46784D01*
X163557Y47018D02*
X163557Y39092D01*
X163557Y47018D02*
X165583Y47018D01*
X165583Y39092D01*
X163557Y39092D01*
X163557Y39733D02*
X165583Y39733D01*
X165583Y40374D02*
X163557Y40374D01*
X163557Y41015D02*
X165583Y41015D01*
X165583Y41656D02*
X163557Y41656D01*
X163557Y42297D02*
X165583Y42297D01*
X165583Y42938D02*
X163557Y42938D01*
X163557Y43579D02*
X165583Y43579D01*
X165583Y44220D02*
X163557Y44220D01*
X163557Y44861D02*
X165583Y44861D01*
X165583Y45502D02*
X163557Y45502D01*
X163557Y46143D02*
X165583Y46143D01*
X165583Y46784D02*
X163557Y46784D01*
X168557Y47018D02*
X168557Y39092D01*
X168557Y47018D02*
X170583Y47018D01*
X170583Y39092D01*
X168557Y39092D01*
X168557Y39733D02*
X170583Y39733D01*
X170583Y40374D02*
X168557Y40374D01*
X168557Y41015D02*
X170583Y41015D01*
X170583Y41656D02*
X168557Y41656D01*
X168557Y42297D02*
X170583Y42297D01*
X170583Y42938D02*
X168557Y42938D01*
X168557Y43579D02*
X170583Y43579D01*
X170583Y44220D02*
X168557Y44220D01*
X168557Y44861D02*
X170583Y44861D01*
X170583Y45502D02*
X168557Y45502D01*
X168557Y46143D02*
X170583Y46143D01*
X170583Y46784D02*
X168557Y46784D01*
X173557Y47018D02*
X173557Y39092D01*
X173557Y47018D02*
X175583Y47018D01*
X175583Y39092D01*
X173557Y39092D01*
X173557Y39733D02*
X175583Y39733D01*
X175583Y40374D02*
X173557Y40374D01*
X173557Y41015D02*
X175583Y41015D01*
X175583Y41656D02*
X173557Y41656D01*
X173557Y42297D02*
X175583Y42297D01*
X175583Y42938D02*
X173557Y42938D01*
X173557Y43579D02*
X175583Y43579D01*
X175583Y44220D02*
X173557Y44220D01*
X173557Y44861D02*
X175583Y44861D01*
X175583Y45502D02*
X173557Y45502D01*
X173557Y46143D02*
X175583Y46143D01*
X175583Y46784D02*
X173557Y46784D01*
X178557Y47018D02*
X178557Y39092D01*
X178557Y47018D02*
X180583Y47018D01*
X180583Y39092D01*
X178557Y39092D01*
X178557Y39733D02*
X180583Y39733D01*
X180583Y40374D02*
X178557Y40374D01*
X178557Y41015D02*
X180583Y41015D01*
X180583Y41656D02*
X178557Y41656D01*
X178557Y42297D02*
X180583Y42297D01*
X180583Y42938D02*
X178557Y42938D01*
X178557Y43579D02*
X180583Y43579D01*
X180583Y44220D02*
X178557Y44220D01*
X178557Y44861D02*
X180583Y44861D01*
X180583Y45502D02*
X178557Y45502D01*
X178557Y46143D02*
X180583Y46143D01*
X180583Y46784D02*
X178557Y46784D01*
X182457Y48892D02*
X190383Y48892D01*
X182457Y48892D02*
X182457Y50918D01*
X190383Y50918D01*
X190383Y48892D01*
X190383Y49533D02*
X182457Y49533D01*
X182457Y50174D02*
X190383Y50174D01*
X190383Y50815D02*
X182457Y50815D01*
X182457Y53892D02*
X190383Y53892D01*
X182457Y53892D02*
X182457Y55918D01*
X190383Y55918D01*
X190383Y53892D01*
X190383Y54533D02*
X182457Y54533D01*
X182457Y55174D02*
X190383Y55174D01*
X190383Y55815D02*
X182457Y55815D01*
X182457Y58892D02*
X190383Y58892D01*
X182457Y58892D02*
X182457Y60918D01*
X190383Y60918D01*
X190383Y58892D01*
X190383Y59533D02*
X182457Y59533D01*
X182457Y60174D02*
X190383Y60174D01*
X190383Y60815D02*
X182457Y60815D01*
X182457Y63892D02*
X190383Y63892D01*
X182457Y63892D02*
X182457Y65918D01*
X190383Y65918D01*
X190383Y63892D01*
X190383Y64533D02*
X182457Y64533D01*
X182457Y65174D02*
X190383Y65174D01*
X190383Y65815D02*
X182457Y65815D01*
X182457Y68892D02*
X190383Y68892D01*
X182457Y68892D02*
X182457Y70918D01*
X190383Y70918D01*
X190383Y68892D01*
X190383Y69533D02*
X182457Y69533D01*
X182457Y70174D02*
X190383Y70174D01*
X190383Y70815D02*
X182457Y70815D01*
X182457Y73892D02*
X190383Y73892D01*
X182457Y73892D02*
X182457Y75918D01*
X190383Y75918D01*
X190383Y73892D01*
X190383Y74533D02*
X182457Y74533D01*
X182457Y75174D02*
X190383Y75174D01*
X190383Y75815D02*
X182457Y75815D01*
D10*
X134764Y28504D03*
X134764Y18504D03*
X164569Y22364D03*
X164569Y12364D03*
D12*
X156243Y19482D03*
X146243Y19482D03*
D10*
X134685Y47466D03*
X134685Y37466D03*
D12*
X206900Y75740D03*
X196900Y75740D03*
X206900Y65580D03*
X196900Y65580D03*
X206900Y86980D03*
X196900Y86980D03*
D21*
X136188Y79589D03*
X136188Y91589D03*
X122188Y91589D03*
X122188Y79589D03*
D10*
X237650Y111260D03*
X237650Y101260D03*
X252890Y111260D03*
X252890Y101260D03*
X268130Y111260D03*
X268130Y101260D03*
X25176Y105244D03*
X25176Y115244D03*
X270683Y175254D03*
X270683Y185254D03*
D22*
X226030Y8640D03*
X238730Y8640D03*
X251430Y8640D03*
X264130Y8640D03*
X264130Y86640D03*
X251430Y86640D03*
X238730Y86640D03*
X226030Y86640D03*
D23*
X245080Y47640D03*
D24*
X115781Y310713D02*
X108781Y310713D01*
X115781Y310713D02*
X115781Y303713D01*
X108781Y303713D01*
X108781Y310713D01*
X108781Y306563D02*
X115781Y306563D01*
X115781Y309413D02*
X108781Y309413D01*
X108781Y293173D02*
X115781Y293173D01*
X115781Y286173D01*
X108781Y286173D01*
X108781Y293173D01*
X108781Y289023D02*
X115781Y289023D01*
X115781Y291873D02*
X108781Y291873D01*
X176796Y310803D02*
X183796Y310803D01*
X183796Y303803D01*
X176796Y303803D01*
X176796Y310803D01*
X176796Y306653D02*
X183796Y306653D01*
X183796Y309503D02*
X176796Y309503D01*
X176796Y293263D02*
X183796Y293263D01*
X183796Y286263D01*
X176796Y286263D01*
X176796Y293263D01*
X176796Y289113D02*
X183796Y289113D01*
X183796Y291963D02*
X176796Y291963D01*
D12*
X127549Y143313D03*
X117549Y143313D03*
X127662Y132793D03*
X117662Y132793D03*
X86470Y112090D03*
X96470Y112090D03*
X96216Y125738D03*
X86216Y125738D03*
D10*
X25015Y188704D03*
X25015Y178704D03*
X25176Y152074D03*
X25176Y142074D03*
X77246Y159600D03*
X77246Y169600D03*
X99581Y296162D03*
X99581Y306162D03*
X192996Y296263D03*
X192996Y306263D03*
D12*
X76888Y89637D03*
X66888Y89637D03*
X143256Y240155D03*
X153256Y240155D03*
X261130Y199816D03*
X271130Y199816D03*
X153397Y225000D03*
X143397Y225000D03*
X242786Y175576D03*
X252786Y175576D03*
X38479Y89530D03*
X28479Y89530D03*
X47838Y89540D03*
X57838Y89540D03*
D25*
X40960Y65864D03*
X102960Y65864D03*
X48460Y65864D03*
X95460Y65864D03*
D26*
X54460Y65864D03*
X89460Y65864D03*
X59460Y65864D03*
X64460Y65864D03*
X69460Y65864D03*
X74460Y65864D03*
X79460Y65864D03*
X84460Y65864D03*
D27*
X57960Y23864D03*
X85960Y23864D03*
D28*
X64136Y116974D03*
X57636Y116974D03*
X51136Y116974D03*
X44636Y116974D03*
X44636Y100974D03*
X51136Y100974D03*
X57636Y100974D03*
X64136Y100974D03*
D29*
X205380Y30288D03*
X180580Y30288D03*
X180580Y12588D03*
X205380Y12588D03*
D28*
X64390Y145168D03*
X57890Y145168D03*
X51390Y145168D03*
X44890Y145168D03*
X44890Y129168D03*
X51390Y129168D03*
X57890Y129168D03*
X64390Y129168D03*
X64390Y173108D03*
X57890Y173108D03*
X51390Y173108D03*
X44890Y173108D03*
X44890Y157108D03*
X51390Y157108D03*
X57890Y157108D03*
X64390Y157108D03*
D30*
X150278Y279830D03*
X150278Y262330D03*
X132457Y280037D03*
X132457Y262537D03*
D31*
X141493Y303441D03*
D32*
X131243Y309941D03*
X131243Y303441D03*
X131243Y296941D03*
X151743Y296941D03*
X151743Y303441D03*
X151743Y309941D03*
D33*
X114237Y202205D03*
X114237Y215705D03*
D34*
X58294Y192227D03*
D35*
X58294Y248877D03*
D34*
X58294Y305527D03*
X234446Y305652D03*
D35*
X234446Y249002D03*
D34*
X234446Y192352D03*
M02*
