M48
;GenerationSoftware,Autodesk,EAGLE,9.6.2*%
;CreationDate,2023-08-20T13:43:53Z*%
FMAT,2
ICI,OFF
METRIC,TZ,000.000
T5C0.305
T4C0.600
T3C0.630
T2C0.650
T1C0.950
%
G90
M71
T1
X15207Y10159
T2
X11516Y2386
X2876Y2386
X11516Y6211
X2876Y6211
T3
X4196Y5486
X10196Y5486
T4
X10196Y5486
T5
X22813Y7273
X19308Y2194
X5541Y8112
X2832Y7998
X10298Y4545
X25552Y15043
X6759Y16511
X7594Y14406
X12862Y10146
X6378Y13717
X9696Y26974
X13212Y25218
X10752Y23902
X2853Y24606
X24512Y2517
X15163Y1149
X16599Y10503
X16276Y25610
X10899Y25630
X10965Y11067
X2231Y26726
X3296Y11962
X10558Y9058
X16960Y9810
X12192Y11229
X18962Y3996
X21234Y4858
X15210Y11589
X8508Y26947
X3730Y25570
X26993Y22177
X26999Y25608
X27000Y24540
X26985Y23402
X24537Y27257
X4364Y2857
X2248Y29232
X3678Y31116
X25572Y31072
X26893Y29254
X21301Y30005
X25986Y26791
X9964Y2857
X9964Y1857
X7222Y3083
X26981Y2501
X26999Y7276
X26004Y2502
X11453Y12008
X16193Y11192
X13773Y10158
X14250Y11226
X17238Y9110
X11895Y10124
X18287Y9552
X3726Y26373
X2872Y25559
X4919Y27014
X8483Y25604
X26744Y11909
X23846Y12161
X25994Y25640
X23436Y27278
X22231Y27249
X20976Y26659
X3966Y4545
X16295Y21688
X23337Y14532
X18254Y25647
X20991Y25628
X19310Y25646
X8446Y15207
X22629Y2518
X2876Y23648
X2876Y22690
X6684Y26985
X11624Y17778
X23868Y1848
X21864Y13012
X11610Y18772
X21505Y15588
X3991Y10897
X3889Y13691
X3724Y18583
X21702Y11585
X7847Y28667
X19089Y20908
X7837Y22617
X10772Y22586
X13844Y20431
X26250Y17451
X20143Y28018
X7623Y10389
X9554Y13501
X11652Y15900
X7496Y11431
X26058Y10612
X25158Y1862
X10383Y12267
X7153Y7589
X9592Y9361
X10564Y13455
X6277Y7596
X13230Y19191
X3515Y15845
X7191Y12955
X15962Y12032
X3635Y10085
X2674Y20715
X13983Y12992
X16744Y27907
X13413Y12285
X9937Y28777
X21862Y9034
X5515Y13704
X24523Y11600
X21863Y743
X2813Y9763
X2291Y4143
X18030Y20298
X19800Y5750
X22244Y16265
X23501Y17593
X20745Y5737
X20859Y16875
X18735Y8260
X15370Y8739
X15787Y3166
X17093Y3256
X13839Y6677
X14650Y3891
X3331Y17141
X3728Y19486
X14826Y24764
X18050Y24750
X25546Y19282
X8441Y5004
X4566Y7934
X5951Y5004
X3742Y7595
X16132Y28525
X15634Y19853
X3051Y12802
X13805Y23221
X16707Y6240
X7222Y1283
X4364Y1857
X9688Y25637
X10889Y26904
X16944Y15956
X24530Y10632
X12226Y1151
M30